/* XPM */
static char *_480197911654[] = {
/* columns rows colors chars-per-pixel */
"128 128 84 1 ",
"  c #474847",
". c #4B4C4C",
"X c #555555",
"o c #5D5D5D",
"O c #656565",
"+ c #676867",
"@ c #686768",
"# c #6C6C6C",
"$ c #6F6F70",
"% c #737373",
"& c #7C7C7C",
"* c #807F7F",
"= c #7F7F80",
"- c #848484",
"; c #888887",
": c #878888",
"> c #8C8C8C",
", c #908F8F",
"< c #90908F",
"1 c #8F8F90",
"2 c #8F9090",
"3 c #949494",
"4 c #989798",
"5 c #9C9C9C",
"6 c #A09F9F",
"7 c #9FA09F",
"8 c #A0A09F",
"9 c #A09FA0",
"0 c #9FA0A0",
"q c #A4A4A4",
"w c #A8A7A7",
"e c #A7A8A7",
"r c #A8A8A7",
"t c #A7A7A8",
"y c #A8A7A8",
"u c #A7A8A8",
"i c #ACACAC",
"p c #B0AFAF",
"a c #AFB0AF",
"s c #B0B0AF",
"d c #AFAFB0",
"f c #B0AFB0",
"g c #AFB0B0",
"h c #B4B4B4",
"j c #B8B7B7",
"k c #B7B8B7",
"l c #B8B8B7",
"z c #B7B7B8",
"x c #B8B7B8",
"c c #B7B8B8",
"v c #BCBCBC",
"b c #C0BFBF",
"n c #BFC0BF",
"m c #C0C0BF",
"M c #BFBFC0",
"N c #C0BFC0",
"B c #BFC0C0",
"V c #C4C4C4",
"C c #C8C7C7",
"Z c #C7C8C7",
"A c #C8C8C7",
"S c #C7C7C8",
"D c #C8C7C8",
"F c #C7C8C8",
"G c #CBCBCB",
"H c #D0CFCF",
"J c #CFD0CF",
"K c #D0D0CF",
"L c #CFCFD0",
"P c #D0CFD0",
"I c #CFD0D0",
"U c #D3D3D3",
"Y c #D8D7D7",
"T c #D7D8D7",
"R c #D8D8D7",
"E c #D7D7D8",
"W c #D8D7D8",
"Q c #D7D8D8",
"! c #DBDBDB",
"~ c #DFE0DF",
"^ c #E0E0DF",
"/ c #DFE0E0",
"( c #E2E2E2",
") c #E9E9E9",
/* pixels */
"GUUUUUUUQ!!UYUJQ!!!VCGUTUGUPUGUDGKUGQY!^!GvGHRE^(!UDJQ(!^KvCVCGGvvGGVGGGCVVqvzzGEUUKGGGKUJQQYRUUQEUUUUKKUUUGGVvZhqvCCGvGGGUGEEKG",
"vGGUJGUU!QRJUUV!(!EGGvVUEQREUUCGGZQUUE!!!UUEEYG!(^QUQ(!(QGhCQFLJGGLGFGGFCVicCVVCGEYKCvAEUUQ!REGQEUHEKKGGGJGGvhvVhcGGGGGGGUEZVGGm",
"VVGGGUQRKUGGEUR!!^GmKVvGVCGUGGGGJCUKHQRQ!UUUQUG!(!!!(!(!!IzVEGGGGGUCVFCCCvvFGGUUUEUUUVGUEEQEGKUTG!UKEUHGUGGGVGVVgquvGUKGGJUUGEVx",
"xxGUU!!QEEERUEURQEGxuvvVGvSUGVCGVCvUUYQ^EAURQUEEEUGGU!(!^EvCCCGICGGGLCBCFGGGJQQTEYHEGFEUREGHUEGGUGUUUUGUIGGVvGFCx33vGGKKEUGGUEJv",
"CAEQE!!!KEUKEVAQUGAv-qhGGxGGVCVIKUGGGHUQUVGGQ!UVGGCvNUQR(EvUGGGVBZCVZFGGGGGGURUUGVGEVnGQRQURRUUCGEGUCCUGGGZmvnVVG*;GGGKEQRGCGUEA",
"GEUUGU!!JEVvKixU!EV;#&aKGVGGGVGGUUEUAUUUGhGGGYCVGGGVVGQ!!ECGGGGICxFFGGUVGGGUUEYEET!xGGGUEQR!UUKKGGGUGUUGGGCCCVGVCuouUEUEUHYUUKUE",
"QEEGGG(!GGGGU8qEQEz45<xUQEGGUGFZUUEGGEQEVzCVCULIGUGUCEUQ!GVEEGVCCVGGGFGZCGUCGER!!!VqGGGVUHYEEGGEHUUGUGUGEGvVVnhkZz&3GGEEEUY!QQUY",
"EUQUYQ(!EUECGCiRRUGiq4mUQQEUUVvUKAKCGGEUCmAmCGUGGGGGGUYYUvBLLGVVJGGFCCVGCVAGVGUQTTqlCVQUUvKERJGKGEUUGUGGGAVVxvihvz4&GCUT!WQ!RU!Q",
"RQYUQ^(YYQEQQvhQ!!U734zCUT^^^EGQKGGGGCEAzVvvZUKUUGIGVVVVCiVGGGGCVGCGGFFBGCDGCVVGEGqCCvGUGGGVUQYRUUQHGUCZUGGvvvuvVCx>7&mEQER!UHE!",
"QEUHR!QUGGGE!VhY~TU7%%qCUQQ!^!Q!!EUUUVCVhVVVCGJEGUEGkxhvVzvGUGUGvVGUSGGGGICVVGCVGz7JGVvvvvVVCGUGGVGUUGEUGCvCVxnGvVGq53xEUY!!!ER!",
"UCVKUUEGUxGU!EhG(!Gv3%%nGEEQ^^UPRQGGGGAvvVxGCnJUVJGxi43qhvGUGCCZCVFGGGGGIGGVGVGBGqiUIGCVCVGJCvvvvGUUUCZGGvvCCvixUGGr-uGQQ!!RGURU",
"ZVGCvGEJUGGmUGZQ(~UGZ4>xAVGUYQPGUTUUGUVnxVBFGCGUJGGC3<3<iVGUGVBhnCGZUGGGGJZVVGVGV:VGQZvxvVxxGGAGCGGGFGGVVVCVvxziGGUV%>GUE!QHGKUG",
"GGFVVGVVGQGvvUGEE!!UC>iVCCCECVUYQ!^YEVGlqVJZZCVvVxzzp5-;AGGUGGGGvVGIGGGGFCGGVVGGxqCUTVhkhxiiasaCCGGGvGGCVkzVvxzukGGGi$vIGEUGGvvZ",
"CBBzugBFVCUGVGUUGRQUv35iFGCGDGPWRUEGVvjxzhmnxlzhiqa3&$3xGCxGGGGFVCGGGGCVCGGSCVGGVhCGUGqquzxBvquuxGGGGVVCCBCDVvxaxvGUG45GGGVvVCUG",
"VGGCVCxzzxGGUUE!QRQEvqiuvnhixGGvnGVhq5hzzzvzqrsq7>;%3uzVIGuGIVGCFCGUIGCVGGGGCBFLxqbuqq>>hvvnVxzxiixGVZGVVVFVvvchxzVEUC&#uCFUGCGV",
"VVGvvGCvzvVCJHR!!!QC%-3>3qfpwuu>3:&*<-&-&:>-%#&&-2qVGAVhUUkqIGBVvFGGSGGVVVGGCCGGqqGCuiz3qki5qkhqqquhvVGVVCVBxvvvvVVQGGu&#qGFVCCZ",
"CvZGGAGGVhsVVhGQ(^!Ui3%%###%&&&3>35ixVijheqxvvVVGGUGBvGGEEv>GUJCVGVGVVVGGVGCvvGV>iGUUJUAiiGBh334q>iqexCGVhxmvvxmivVURCZC4X3VnVCC",
"qCGGGGmxVvVVqiGHQ((QUGClaiiizxVUGEERQUEUGUQEUEKEEEUGGCURUQLFGCCAGVGCFVFLGGvVvVV5>GAACxCJG54k4=%&-qux55CGxkvVCxnVxkCJ!UUUGV3:%&>3",
">&qGGUGGVvi5zG!!((((EEUGUUGUUUKUER!!~!^ERQ!!QJU!!RTQEvzJEUUUGh3aFZGCGGGGGFGGGv3#uGGGGGGVUCq>uzisuq5a553ilvvvVVvxvGGU^!!!EUGxhq54",
"Gh%5hiq4><5xGUQ!!^(QQGmzUEEUGHUKUQQEQUGEY!QEVVCUEQUUUhqzAUGG5;>&3VCZUGGGCVGVziqqSCGUTEGHKEUGvlvvDCzVVqqhAvvkizvzzq8E!QUZGUUUJUEU",
"UGVqijzlVCvvvGEQQYCGEzCCCVlUEEJAUIJUQUUUGUEJnvixRERGVGchvzvAiavhhVv44qq43ekvVvVCvCZzCGGCGGGGGxVGGhqiVBVq-3rkiihr*-vT~EGGGGGGEQQR",
"QChulVUUGJGVVnvUEGCmhVGGnmVnxVVVvBGGZZGGGHGEv55vCGUUvmhzlzvVhzZGUG>#35quxZZViu5>iBVVhqghuqqhCUGVqqihhCvhq47q<&O+5xGUEJv343>qknQ!",
"(!EGGE!(QUvuixs6uhjienVvVCJmVvivCVCGVxkxCEGGCxu4szGGCVxshxhxhixZJGmvzzhVxvvxe55qhxCVxzVxhvvCCUUGhuiVGZG4%#*;hxhVGGJUGGCxulVbVAU!",
"!!Q!!^((((QKGCAVq%&lVvVVnBVvlvnihBVVGJCnVGvVUGKq5vKEEEGGGmzinvvavCq33q55q45huvhuuqlv733553qzxCGzin43qkh85-3hGGVvvGxelGVUEQQ!!(!(",
"EUUGAERT!(!EEQQUGx3CUBGGCvzVZVGVvVvZvVvGCCCGFFGv<GKKGUUGCGviBxzxxn35ahVxvxviVz>>3q43>434iq4qu3mh35q35ihqiVGGGGiiVvi>vUKJGEUEGGQR",
"GEVZGxmUUGKQUCmhvvzGEVhZVGGxzmCvnFBxVGvVnvGGvUGviGEEUGGKGKGh5qiuxB5uvVGIGGlVVv557333554q8e5>333v8qqqq5qVAGGVzVHVVvzmGCGGGGRGxGCG",
"VGVVCVzxlizxvvzjnGvFBVvvVCCFGGGGCFCzCnvnvckzzEGkxEUUUGxUEGGxueqh>vhqhGGvCvVJCCv55qqqqqqq8q5qwi35qqiqq5qruqCGCEQUVCkVzivVmGGxVVkV",
"vmVvmGVzzmi>,qbsvAVIVVVCvCVCGVGZVVvVxxCVVvv5iUVumGGGCGGGJGGxxni<5vvaiGChvZzhvviqquq5556qq5qqquqqquuiqqqqqqzVGEUGGGGZCVvVGAvVZCvv",
"VVGAGZCzvCvhivVCVCCGJVVVxxVCFVAGGVZVFVVGCvvhCUV<qGGCCGIJJGGVhGV<hCVxxCCGVCxqnhxhVVAVlhu55qruiiyiuhhihuyq5vEUUQGipCxxnvhizCVFGGJA",
"GZGGGJVCUGGKQUGVGVFEUCVVVVVvGVhhvCCZVvvnzvCGGUC4$4CSGVUUGGUChvGhxGzhGCBivGUvxZUUGGUQEUGCsupushvvmvclhiuq5GGYUUz4uVCVzGGGCgVGUKUE",
"CGUUEEGGGQUUEUGGhzGGJCzVIGvvkVCGxCGxVGnVZxVJCGGq%>cGCCGUxCUCxhIhZGkzGGvhxGEUQ!^(!EE!!!QEk3uiihhxVVGVhzh4VGCVGKa+VCCGCJEGGGGUUEGG",
"GEUGJE!UUJGUEUUFVhCGGCAxVZGGvmVVVnvxzxkCvvvUvVZz$3VVGGGGNGUUkzCkGCihIGGVnQEQ(((((!E!(((Rv>qwiihhihxlkzibGJUGUEi4GJaBzZEUUEUVCGGG",
"VGAUEUE!!UEY!UYKVucUJVVVcVVvGVnGUvmCzlvkvnvUVVZC5>iCCUGIUEJGVzsxmGvnUGUGI(())(/!(^(!()(!G55eiphzzhhzhwfHGQ!!QQAmUUGVxlGUUCFGUUEU",
"EGEERYEQ!R!!!UEGChGGGCJCVxnvvGvCVFCGvVxvVhvUZVZGz;%:vGFGIGGGAVvihzvxEGTJQ)))((!~^((^U^(^GGq4uuuqiiuuh5qCVGQQEU4mWEGJUVCCvVvZEREE",
"!Q!!QRRUU!QUURUUCvGEGnVxVVJGZCncVVvaqezixVvGGVGGv>3;-VCCSCCUVvzvuhxvGTQT!))))))))(!^AG((!EGs4hdhiiiiiihCGvGEUu>GEUCGGEGGZhvQ!!UU",
"UEURUE!QEURRGGGGUZGGGVABlnVGCvVhVchhxshxvxlAGxVGGirq&:CVGUGGnhaiqhvmVxGJE!((()))))((QU((UUGGz59uisiui4gCGGvvHqhUEGvGUGGVCGUJYRTK",
"hACUEURTRGGEUUGGCGGUGCGZbVGVCGCJnxCCFZvzvvzCUvGGGVzix3>VSFCCGdxxqlVzZxvGVCQ!!(()((EQQQ^!RUGKLv3qaiqui5vnVGVVqvGYUUnUEUQUKUUUUGVi",
"xVZEUGUUGURJUGGUGiZEFVVVCzhkVVVhq4qaxhkzicxGCVGGGVhzvp>;VVVCGzivqihxmvvCVCGGJT!(((UQ(!!QEQ!QUUCuahiq3zEGUEElqsUUEUCKGGRUKUTRGGVx",
"!TUQQUUUQQEGGGUKUxvQJCzvxnvvviqhhvncBvvnnVCCVGGQGvVixas>uPGUFhgMihvmxhxznGvigiG!!!!^!!UCGY!!UUGGCGvVsGUGKUx33sEREUGVVGUGUUUUEUE!",
"GUUGEEKUEGCvvCmCZVFGCVGVVCxaaxhxGZVFvCGvCVAGGCGEGhChiriu5GGGnhuuzkCvVhahCGZxvvVVGGC!!QGKGGUUUGCGGGCvGGGUGG>>jKE!EEUCvGUUUUUGGKEK",
"CrhCGKxzquih5,34qvCGGhVCAhxvmvvVvVCGCFCBBVGGCCGGCvvzhiziuGGGx5hxzxvVVvhixCVVxGCvNvhGUUGCVICVUGVVvvMvVAael>>GUUY!TEGUJGGEUGUVzzGU",
"Gu>iaxh4uvzxqivVhzUUGrkVvkxlq3zzcvGVGVVIBxiqcZGGVhuvisvrzVaae<qxxxVVVuvChhCvxvCZhbGGJVZGCGGCFFFhhVvu<>5i&@VKQYUWQEUGvGCUUEUVVGKU",
"VnxhixVVvjhhhzvl8vUGGCVvxx53453zCVFVZBGCCcviFIVTUjizwlxiq3&%3vhqs5aCxq5VvzvvnhhvvvCCUGxVvCIZVCCCDVVhh44#&nGTQ!QQ!UVVvGvhJQGGGGUV",
"CZGniVCnq#>3qu53uGIVUuCxvVzhhh;2hxBCVGCZGhuaGCCEUVCvu333&%;qzZv5>>iVCh;3GGGCGvnkhvVVGnvCCGGGIEUIGvhhxz&-vKUERQQQRUhvVniiBGGClvAz",
"quq-%*>%%34553qxvVGCFquvizvivvm3izvnvvzCv5>hUVCUQGiq0>433ivUUGGGGGGGGSvqqmCCVGGGGGGVVZVvCCCGEGGGAVihiO-CGEEKUULCGUv>433>44huh533",
"%&%5iuqqvGGGUGGmFGCGV3&>333>;>3>>>5q3333&qCHUEGUQQGGGGGCGKCVGGGCGQGCUIIUz>&-&;35uxVGGGGGGGJGVVGCVvhz$XzGEUGCCZGGGChe&-*-;-&%&&&&",
"VVCGCGUUWUUUUUCxxzvCVi&>*-5Vlaaq3>*=3>>;pGGGUYQQQ!!QRUGAGGUVVVUGCUJCGRGvbviuu<%%&->3hGGZUUUEGEvzxvh+%zAGGGvGJBMvjzqe8uh5>333izxV",
"CGGGGGEKUKJGvVGVi>;q;qq5eqVUEUUlikcvvxvCGJCGE!Q^!!!!UZvxhzxvCGGvVvCGVxziiuhu0uiq>;-2%%&;4quhVvGGGi+-zbvGGvzCmCxquqr5hvq5543qsxxm",
"hgzGGGUHGEGVvCEQUGsqzvCxvGUQ!(!EUUVhizvCCCU!TE!!!Q^(^^!YUUHGUHHCBq4uVVvvVAvVh8uxCxVCvq;&O. &5xGG5-pVmvVvaih>&3hxzequzvvaeixxzqqq",
"znvVVxsuvvVVKGUQEREUGGGzzVGREGE!UGGxnvq5uVCEGU!QEURQY!EUYEQGCUHQQUvVUURREE!QYKvxmEQGUGn3#>gCFGGIxlGGETEUCb&+-uvCAxGGV0qquivxiavV",
"qqCCUJGi5vUEYGEREQYUGCGKUCvUKGUEUCIvuVaorGbGU!!RE!!QUEEHEEWWGQE!(!UUHEUGGUURQQUG!!EUUCVvCGEEUVxGvrVuzGURBh>9hzCGi5VCahVhVCCCi3ia",
"uqVUU!!EKKUUUUUGCYUUCGGUEIGGvGGGGCvvBVV3xGvKQQREERYQURQY!!Q(RGY!(!EUUQHvv4rnCUQQQGUUJVCCGGT!QGCTUpq5vKUEUv3ikCGGCixaqhVCGEQEJChq",
"uhGUQ((QGUUQEGGGAAUGUUUUJGVGGFIIGGGxVVGKAxhV!!UUYEEQQ^Y!!!(^UUH(!EQRTEVCGuuhlAQGCGVQGlbk4;xE!R!(!GVGKKGGGv4xlAGAVqxxuvVVxEQ(ECqu",
"jzGA!!!!QURUVGUAVzCxVGGGCCIGGCGVVvvjqVUUGz5Z!RUEEQ!(!^!!(!(!URG!!REUVGUGAUGRUCGVVGJGGqiq*=uE!~(((!EUGzxGGuhiVGEUVqvVikVVVJ!(Rnhx",
"VhGGR(!YTUGUCGKGGVCGGUJGFhhvCFCVvvmCvUQQUUCE!RYEQQW!!!!!Y!^!!QH!!EUGAGEKCU!!RGUCCBUEF&8hqq3G!!^TQ!QUGiZQEkxvxGGGxsVGvVVnVGG!Uzhv",
"VnEGE!QEECVJUUUJUKEEQGGVVVgVxBCCVvCYQQREGUU!YQRQ^!!!(^QYQ^(^EQGU!UUUEGKUUEG!EUUGGvVIC>5zgqZEQ!!UGU(!EUG!RChVGJJGxvCCvxCVAQ!^G7Vv",
"KIGJU!QGEUUHUGUUPGvGUUTvvGCGFvGGAGUEUUUUGvGQYQ!!(!^((!!^!!(!KQUUEGCJEGUEUQEQEUGGZGQQmqvwqiURE!QUEQEEGVRUVicmGhhxxVGvxmVCU^(!CixG",
"CCGUGUUGUUUGUUJECzvVUGJGVJGGGGGGGzvEKbGUGmH!YR(^!((((^U!^!((QRGEQGVGUUTQQ!EQEUUGUUQQmui>0CUETEEUAHGGV8GGG5vVVhuvBbUCGGGGGU!!UGvC",
"VvGGUQTnVUUGGAVxnCGVVGUIIGGGIGIFihvEEUQEAU!EGR!^(!R!Q!Q!!!^!UEUUEVUZVVCGUGKEUKUGGJGUVuqqGUUGKKCGGUUEUCVGG5eqkAmCCGUGGGCuiqG!(QGG",
"UvVGGQJCKCUGGxhzvVGVxCvGGCVZCGk4vmmKUUQUCGQEEEE^(QY!YE!^!!^!!RUQQHCGZvxGGGCCxmGGGGJUvihGGEGGGGZCHGUGCGRGvc4qqqiuhuqiqqiq<uG(((!E",
"QGvEGEGCGCvVAzVVCvVAvCnxVZVxCh>vvvVIEKETCG!!Q!!!(!QRUUE!(!QRRCVEQUVzFGmBVChqzhhixvVJinzxZGUCCGGBBGVCVGLG>>iq>4zxsuh7q5hxzG(())((",
"QEHVCUUGmGGVVGCGZFvmCzkxxVvivvcCVvvGUJUUGG!^QUHE!^KGUU!^!!EUUGGGEHCVxvCkVVbGAGGAAGGGGCGGGGGGCCVGSCCVVVUuO>xa>>zBhvVhzbvCGQ(()()(",
"vzszzjxhzzkxhu<>3uqzhdvnCCVGGVGVCvvxZUGUAKEE^!PEEYEUQQ!!!!REEEKQEKCGGvvuxMZGUUUKVvxVVzGvhquhuzAxhvVVGvq;&qvGrkGCzzhvAGGEQ!!(^RQU",
">-%#oo@X%<hzu3>#@+&&&%4vviIUJJVVVVvci8>qGGGKHUQQQUUYQEYUEQYGGUUUERQUGGCxvvnCVCmvkzrzz5i3que442&&->;>3&%1>hCGGiCCh%+%<5vGGGvvlVvz",
"VVnihu;3sVGEUUGBvnCxheaeqzCGVvkieq3@#+o+7355<4aCGZVzi3qqqqqqqqvGGUGbcquvGGVxuixi43-%Oo+o&3ixi53;-&&%&&*>>uGGUCGGsz-#Oo#>0qii5qqg",
"KEEUUGVCVUQREUUGEUUV8vvvzqiGGVVvvVvhkqaxxzha532->uv5->%shqur3;;>3qhu3vVvvGKGUGCVVBhqqh533qapihhuu43;->>>:hGGEEGxvGz&%#+@#%$@#o#h",
"GGUUQEUGmEQEEUVGU!ECh5iGaiinGlhvCVVVizxvnZVcihvkvAGAGGGGEEEUIGGxivGUCCUUUJGGxzqqskuqikVl5q5>&&>453>>3444>VUGUVHVvCAnhhq>33435axG",
"xkCGJGaVKUUUUxVGGGCVzvGCh4ia333;&*%*-%&;;-4553448zxiVGGTETQEEETGHVvETGEGGCxuqa44hizxxVxxVVnvhq35u34453334GGUvzhvCvCUUGUGVVCCCVVV",
"CVVGGauvz7Av5qmFCGGGGVnVJCxiiuhzq-7qikkuqivBVVvi5qqq35vnVGCGGCCJGmCUGCCvnvzhkq4qq4iqqiiVCVVxvhipx757457qav7;>uxVnvVGGGCVvVVVnvzv",
"vxvv>rniq&zzuZnCGxggvngCEUGGVhxvGUIGcCGCUGGFxvVGGvqqq4sVACCnzxcvvVGiu5qqq5qizqqq5>;-->4uq5uvh4zhq5<<3554h45iVGvu>>quvGGGVVGGVBvh",
"Cvhvx5>5xZCGCvCvxCcihCVUUKEGChVUQ!~KnVxxvGGGnnvvGGvvVVGGGVVVGGCFVCjzjucviuuhzn7*34><3333-%-3553-*5q4;348hlnxz73;huqru54vvaVCVZCG",
"CVGZGlVCZGxnzvvvvzlcxVUGVvvVCvUQQEEECVvCFnFvVmzhxvGVhzlGG3&vVxi>qVGGUGGGKGGGGAVxhie5%45ugiihzu5rgvhi5qeqi<3mlziivvihq;qhZqVUGhiC",
"VVVCCGvVCFDCvxuhvxq>zVGGxiVxqVvGGURUGUGGxvlvnvvzvvhVxe3iG>>vi3qgxVCVnxVVGGVVZBnZVBCVxzxzvCxuaxVnxhah43hGGcVGUGVVlGvhVGAxzCVFBGVv",
"IIFvzhvUUUEGGEZqavqvhhiehhZ7hVuaiGQEKGzVVjlxvvvhvxxVvhi4kx>qhVGGGGGVkxAGVxxVCCCCnVvZGGGk4qVvCxlze:33ihvVCvBvGAhhCZGUUGVxxGGGGGxv",
"GIGvCVCUUGGGUUGGCVkhaz53u4xqzZxqhVEVhxxxvvvlzhxhszzhvhvhiv44ZGGCCGGVVzvxvnVvGCFGGCGJCGTUGVvxCTUGCgvFLFGGGVvMvVivUCvKGGGACkGFzhCU",
"GICnGUIUvvVZUUUVVUUFa4e7i3vahJCzlnC55hnGzxvvvhvnVCzihvvvaBh;GUGGCGGnnaxVxvvCGVVzkVVVGGVGUUUJUGEUuCUGFVGGGVVCChivzuzmGEzCGFGJCvCG",
"zzknUQEUmCxhlhvUGH!RJVCG3>zihGbvkCVzhhehAVsjzZxVmvnuknkhvvv4vUIFZUFVvxzVVVvVBChxvvvVZGVGJGEUGGUEVUQUGGCGGVvcvuzv5eGVvEhizZGGGGGV",
"mViVUUGGGGGVCvAUEEQEGRKGC>zirGvsVnAziziqmVcbhvnzzzvxq5uuhxFxVGGCBVVVvzzlBvVvvGCVVVVGVnVVmZUGhxUJIGUUGCIGGGhzVvvxiiCCGUhCvxvzvGFG",
"VGGvJGJKGAGUUUEQUKU!!QEVGq3ChCvxuVCuqhaqqvnxmlsChmCziuqizVChnGCCCVVxlVszvcxxcVFZxVCnVnVCVCUV3FGGGUUGCVVVGCvvVxxvnFCUUGCvkzxBihCV",
"GZVVGEGCvGGGUVUQRKU!^!QKGhXqxCV5il5VrzlisziizkzxvvGxhVzqVquiqGZCBVCvlvvxzekvhVVVFCvGvvGUIGUVGGCvGJGGCFVVVmVVvVvq4hBUGZzeaCBzvqqC",
"FvbGxGGGCmvVZUUEEUU!EYGGUG3>qGi4VlumhhVnxkvxlzhkvChhkvKhZ;5vumCVvvVvVvCvvnhzvvxkvGGVVZGTIVGGBVvzvIGFCVBCnmGVmCziq3zJJG5>vGBxxCxV",
"zZGCCnUFxvGFGGGUUVCEKKCUEHz-uCqeVuhivCAVGZzxzhniiCvvxzGnzVVCzvVvZvvvxVVmCnvazvhVnhCVCvGVJxVqqVvxhGFGVnvvvlzxhvvhcuhVGU;;vvCGvznV",
"VJVhxVzGUGGGUGGGUJCGUVmGUEG>qGhzhuqivkiixVVihhhhhivxVhZCzIGChzVVCMVVxxVmCBvvzxVlVvhVGGUGVnG*4VVGCJCCBVVcVlhhvuzzVxuVGUq3qhGGZxVC",
"GGxh3qlvCCGGCGUUZUxVGGvGE!Qi>ZhzpuqqhnxeVVvnhihzzhVvvzVxvUVGsivCvBvVVvVVmxvVzivvnVVhzvvGVVJhgxGZGGFVCVCvVvxzhwVVkxvvGUh>qquuCGVG",
"vxaVVkBVGAGCVVVGKVhvGGFCU!QC>mhiqwihzxZzlxvizhzxxzhzhzhlvFZGBzVnVVVBVBxvzevvvvhxvvvvvxczzVVGvGCGAvAnVVvvVVxvhueqirxvUUx>:Vhzzxkv",
"VxlxVCvCGkxGCvVvGGxvEIGVRQUG3iVvzvvnxkxVzhhqishlsliihhuxFGGCV>inVVBnnCvvxheilvVvVvvvvcnvzhhxzGVGCVVVVvVVVVvxxheqqh5hEGGh;xvhihmm",
"GJGGZCviCCzzGVzVzhuhG!ViVEGUv3bVVVvxvvxkVhivishxsivhihhhVGvnGxzCVVVVVVVvvhizxvvVVxVvvvmCVxlquUCGZvVVVVCCVVVvhhkvu5>eUGVve5iizcCZ",
"vavCnVFGnGUvnUEGVhmGGEUxvGGGv3GshVCzxGzvzihq<3qhhhmxluivh5&xvvvVvnVCCVCVxxvVVCVhxxvvvvCVVCx>uqhLxzzVVvnZCGGVnngCG3qnGKVvshiVvgvV",
"VxvVvCJGVGUUGJEUUEGVJUJzVCvvV4hvzzcxxVaCvz55q35mxillhxrmvqhVquuMZVnZAGGVvjzhziazkhhznvvmCv4#hqxICncCFZCZCGGGBVxxUzhGGECv:3quCVvv",
"zujvxuhAFvVGVCJUEGCxCUGCvxuCGx-5lxcihcqq55ih773&&-:&%>qxGVGKUUGVGVGFCVxkiaqqq3335eahi4evxx4-vnUUGCCFCBGGGGCVVvChGxvGGQbVq47&4aex",
"ruuuixe5vvxhhaiGGVvhxuvCiqlUUGCq<33:%oXOXO;qviq3*%$%&#+%zCwvEURGVBCCvu8>;3>>3>>;5hviqe54hzqvvCUJICnCVVGGAZGAGGCxGzCGG!GCvahh#4h5",
"izqakixi3544a45hhVxvnChaqVUEQQPKGGFCxih4>qvAUEUGVvvVnluuiquxGRQviiu53>&#@%%%%&%%340axzvxvheJCGVGGVVVGCCCAVvivvzxhiCKD!GVCzhhq-qi",
"bzxvVwwuuq<<35q4>34uVGCzvVlnTQQQERQEUKKCGCGERUEUEKGmvesGCzuuhvGCGvVVvhiaq-:;;>34:&&&*;3<3;hGTQVvZGvhBCCVhqqhvvlqshVGK!UVAuqph3qa",
"iVVvzzq53&5q:qa3&;q5qrqqehhhxCGUUUKEEUUUAlVEUKUGGUGGVxmxBCCUFGGUEEUGAVGKGhvGFCGGCVziig>&%#sG!!G4&qvhxvx4qhvhmVVhrqzGG!EGGvzzzk8u",
"riilqq>->8ii3->-;-%#%>>3hhhhziihvnxvhazZCVGVxizVzaszzhqgzkVUUGCAUGGVCVKTUEKUUGGGJZVCCVhkiqGZETUa+.;qquqnmvvxxGxihkivVQUGCV333q5q",
"<-&-;&*&#-%$%&*>;>3uxVVGGJGGKGAGAVVvzxmCBVvrqhzvhlzhxvzhvkxvnGnGUEEKUEUGGVGGGGEUUEJGVuzvhVVGAEKGF4O+#%-3eihhqurpkq43vGEGVCq&%#%>",
";;>;-;$;q7ehvVvvVbVVrsGxvCxvVvVvhhvvvCGUVcqvvvCCCCvcBxhvhihzuxGGGGvVZGGVxszxIGGGUUCCVVGGnGEUGxVGVh3*%%$%$%+#$O+@o+%ikqzhzCVxzr3;",
"33453>dq0iVvzvzuVAGCkiqvVvVGCvCvuur545qAAGiznVvvnhvVBCVchvBxVGGUEGvqxxuVGGVUUVhkqhzrhxklzGGGGGnCCGCh4&*&--3>-::3ekvBVi3qz583>33;",
"-;3049;tvGGzzhnGGGGUAVzxvxxvzVnxvzzzsuqvEviVzivighvBvChhVVv57kZUGCGxk5qkEKUGGGAVvnVuhi3ixkx4qFKGGJVieivhvnVVVhvGGEUVJJCAGGDh7544",
"V4>qCLivGGVGCvBGKAzhqzCGVhvkzCGvCxCFVxACGmqx4qkhvvCVnvBBZCVg54nUUCnGGGVvvvViuhh5ivhuiVGVmmvvqhmGUGGVqVcnGxxvvVzxGUEEKAVivTUEICVv",
"AuhCUGUUUUGCnxGzxVxvhszAUGUGKGVnVMvBGGGxVx&vvhkhhvvmvxnVvVnxzikVEGlUUVnhz3qihqqq543>>5xuq8<hz>CEGGUxzGZGFGCGGGCvVGGVGGu4zIUGFCCv",
"GGGETGFVCUGGCCGCGGzzmVvGGKVUUUVVGVCVCUZhlG3qVunxvxvvVvxvVVBxVhhCKGkVVGCvCeihsxiihqqq54rvvzu4xvUYKEvuZCxVCVGVCGVvxnVhVxqxZFGvxVFV",
"EUVQQUhIGUGLJGUQ!QQJVVVFG!EQREGGCGJGVVGzVGi>v<ivvzxcVBmnnGVClxvVKEihBzqCnqiuiiqhzuur433ivVGvmVQ!UGxxCGaiVVVCVGGGvvvVhuzlxICCVCFG",
"GVGEEEIVVGGUQTQQR!((!ACCQ!Q!!EJUGCGGGCCGCmV5i43hklzxVnCGCBCxaivmEGhzC7xCiqqhvshhhrqqqqq45VmlGvV!IChhVzvuvVVGnBGZZmkVGVVvBCZGCJUF",
"CCUQEQUxCGGGGGZCET~!!QUVQUKQ^!EGGGVFGGvjuVvi>:-4vnVvVkhxVZVzuh4vUGquxqvVkzhvaixliziiirqr5353sbuEGUxxClzcVGGzVGVvxCVvVvVUGCGGUChi",
"VGQ^!!VkvUUUEGVvVJEUTUJECUEG!RUAVGGBGGC3via>>4%%4vVhxxvvVvvlu4<hUCh4vivUqhZvaVvuizhszh7hu85>qvxR~TvCGvChGvCvMFVVCvVcvGZUGKGGZuhv",
"wv((!vxhzGUJGGSGGGUFCvVGxVmGEUGCBVCCvvvGGin33k3%&qhVlVxVvvvAV;hvUA35vexUq*qvxhuivhzzzzlhuri43qv!(!vBCzVMFVVGVVVnVvvvCCnVIGUGvhVv",
"UGR!EGxhxKGJGGFGCCGGGGCGGVKVVUGVFGvCVhhuGUmVhVx>$;qiCxlvxxiVGilGJKs3kuhGai4qVlzhsnvvnzhhziuwuxG(!/nGUGFGxvCvCvVvBZCCvVCVGVVCxCGG",
"QG5q!WvivGVxCFILvxFVBGGGCCKGGGCCGGGVCv%5EKCVZCxz&@5uuxhzahzzKhVGEJV3kviGczzihvihvnVVvmVVxhhizVUR(EvUEUGVvCCcCBCvVVvxVvnBxnZCvVIU",
"!UvG!GCpVvCvCJGFGvhznnVCCVbGGGGVvVnvc&>GEEUizCnVu@&hq5xiqqxvGpGGUUC3#vVGvi74>0CVCVxVVvmAGlhziqsEQJhxRKUnkvvvCFGvCvvvzxVGvhxvGGUE",
"GU!!!!piasCvVFCGAGAihGvvCBVGUGCCGvxV&-hC!^QGhxGCZ4+3zehihzhvahGGGQGx&3iGq35q23qVVhVCVGVmvvVGvuhE!GzVEChVnVxxhvGvvhvvVvvVCvxFVGUU",
"TT!!(!Gq3quCGCVhazZGvxCVBvVZVGVvVVv&%vCVG!(!ECVCCv>;7ihuuiuwhhCGR!UG43hC0hhxvxg7vVBGAGGGAvVGvGvU!GzmGxVVvvnVnvVVVcBxknxVZkhxCUUU",
"GEQQ)(!C&-&4qVvisqsGFVVcnCvVGVVvxq&%vGGCSEE!(!UGmvziqq7qqqihrqvUE!RUv*zCujsrsiwhxxVJCVUVGGVzxxVJEVvxziCzxnnVvvkCzznzxVvxVVikVGGK",
"VCbG)(/UV>%&#qCzVVhxCGVcvVCnBVnk>+&xVUUGGLQR(!!VVVhzhiquruiizhhVEQUEU>qGzihsiixVxVnGnnVmzq;&*&xZzvhVGVvkzVVnxvkkxhhxuVCvzmVxUmvG",
"VGDE((!!ECq:&-uVVCVvVClhzxxxvvi%+:hhnUGGHE!^!(!Grvzhsuvhqu3sjq>rEQ!RRh5CivGvzzxvvCmvnVGz>&-&>5xChqhVvVCzxlhkVxhxzkkhuihVvxvVvimG",
"vCUQ((^(!GGzh2%3iVZCCZxxvknxq>+;hvi4eCQQQQRQ^EQQx3whi>3ui&%&@%;vGGE!UGuxvimxhhuivvJmvFGuruhh3:VVx5vG5iAhvkvVvvzxhxAmChvvVGzuhhxv",
"vZVG!((UVVGhviu;@3543>27uuq-$-uVGCCZvVUUQ!RQRvUEUq445:%--&*-4vUEKAUEGQUwhhvvvvhihhhAnv57uvzu6izzxVehCvahkvvakvvvhkaivvxVVVBkvxkh",
"Vx4U!!EEUU!GGCCC7&%%&--&&%%>gVGCGGZZGUUQEUUQHAVUKGi4ue>;4zq5hCEE!!Y!Q!!G>hnvvxvixzzie33qq35iwheisGi>qqzixvhizxkxvxmzzmVmvxVhCCxn",
"x3hGR^!((Q!(!ETKGnqq54<3>qzGGGGCCVGVVvGEYGGGVzhvVVGUvxlhvxVVGGQE!!!Q!QQ!k>vvhxnlrhvq33q45w;3xzsqVAxl3zvzxVxCxvhhvkxzzvzvxvCvvVVn",
"a4vCY^((!EU!^QUEEGGGVvVvVCGUGCxVVvhkvxGGCViiu5>;4anVCkh4ehshlU!!^E!R!^!!Uuxxkhshihvr5q53>3u5vx>ehi4;qiqihqhhi34zsvkklmlkvVVCvvGv",
"%vhiU!!!ERQ!QQGKEGmGEGxhzGCCEEADZGCCCxvCCGSCbjhzCJGCVzkqlmV9>G!!!!!REQQEEChzqquhqzzzq3445,3>uh>hxki3&&%%%&&%%+#%%%3rqizega4szxni",
"iCv34ZRQUR!!YUHGVCGJVxvVvGGQQUUnVGGIUGVFUFGCCGjvJRUJVVGEGECGZB!!QRYEEEAnGGiu4u55quqqzvhiqq355&hCGGJGVq3>2,;&-33-;;&$##&%%%&3<;33",
"FFVVq7hCHUUVGGEEVnUGGVVviGUGGUGVGGGQECVGGGVnUGHGKUEGkxUEGGVxvCUTYvGGCGhhzvVq6q><>55uiq54>3&&$3i8vUGGVzqeq3>hMii5hVnzhiihxzzq5q5z",
"VGVGGuqcmVh8pGGVxizAGAvAHUHCVCVVvxUGJGGGGVAJGVVGGCGZvBJGJGVxxIETUPGGvi7&&ulCj->34q3&*%#@&-qixVpxnVVCC0-5q34hVGvFxhnBaaxCGUGKAVVx",
"vixnxV4345l56VGVAUGzGCGUURUCVGIGGvFxVGGFVCVGCVVUGCCVGVGGGGGGGKUGEUGUGFvxxCGUGzq*;-->;*5pVGGGGAGGGUUKGGneuzlrkCGUGxvxhshVGGUUUVCG",
"quixZzzmbiiivUE!!RG4GHHGUEGUUGGULGGCGUGvCIGVUYQUUVVGGGCVmVZGGGUJxprxCCFnCGWGGV5;&;4u3uGCGHURUEEUUUEEUGJUJGVihZVVEJGGCCVBVhaVVi55",
"qhVxGGGEUHiuGQ^U^!U-lVGUEUQEQGGQGIEEELGGGGGGGUQGzHUHEGVUAGGGvVUKhexvvCFvvGVm4hCx3;q5qxVGUKUEEKUHUUUEEUGKGEUV5vUCZ0hnzzhhixVVZUz5",
"GGUKGUTT!QGhGEQQ!!R4hVKUUGGGEUPLCGUQ!GC!!ICGvG!CGUQQUQTEEUGCvGUvVzVVBGJCvvGzqhCJGCCvsGGUTEUEEEKUHEEUUQUGGUUUGvVUxqqvxvhvGUUGUKGJ"
};
