/* XPM */
static char *db6d0640f301419aef71a5bca5206c954ihAczZzQ0yAhFia[] = {
/* columns rows colors chars-per-pixel */
"64 64 116 2 ",
"   c None",
".  c #000000",
"X  c #01030B",
"o  c #07090A",
"O  c #0A0D0F",
"+  c #020414",
"@  c #0B0F11",
"#  c #02061C",
"$  c #0E1315",
"%  c #101517",
"&  c #111719",
"*  c #131A1C",
"=  c #030721",
"-  c #030824",
";  c #04092B",
":  c #171F22",
">  c #040B32",
",  c #050D3B",
"<  c #1A2326",
"1  c #1F2A2E",
"2  c #222E32",
"3  c #243135",
"4  c #273439",
"5  c #28373B",
"6  c #2B3A3F",
"7  c #060F43",
"8  c #061047",
"9  c #06104B",
"0  c #071253",
"q  c #081356",
"w  c #071358",
"e  c #08145B",
"r  c #2D3D42",
"t  c #091663",
"y  c #09176A",
"u  c #0A186E",
"i  c #0A1973",
"p  c #0B1B7D",
"a  c #33454B",
"s  c #374A51",
"d  c #3B4F57",
"f  c #3B5057",
"g  c #3D525A",
"h  c #455D65",
"j  c #475F68",
"k  c #476068",
"l  c #4A646D",
"z  c #4E6A74",
"x  c #516D77",
"c  c #526E78",
"v  c #55737E",
"b  c #0B1C80",
"n  c #0C1E8B",
"m  c #0D1F90",
"M  c #0D2094",
"N  c #0E229C",
"B  c #0F24A5",
"V  c #0F25AB",
"C  c #1027B3",
"Z  c #1028B7",
"A  c #1129BD",
"S  c #567580",
"D  c #5C7A84",
"F  c #112AC3",
"G  c #122CCC",
"H  c #132ED5",
"J  c #132FD8",
"K  c #5F808C",
"L  c #61838F",
"P  c #638793",
"I  c #668B97",
"U  c #6A909D",
"Y  c #6E95A2",
"T  c #749DAC",
"R  c #75A0AE",
"E  c #7BA6B5",
"W  c #7DABBA",
"Q  c #86A1AA",
"!  c #81A5B2",
"~  c #85B5C5",
"^  c #87B7C8",
"/  c #8CBDCD",
"(  c #8CBFD0",
")  c #8FC3D5",
"_  c #92C3D3",
"`  c #92C6D9",
"'  c #94CADC",
"]  c #9FCEDF",
"[  c #A7C1C9",
"{  c #B3D3DF",
"}  c #97CEE0",
"|  c #9DD0E1",
" . c #A5D2E1",
".. c #AAD4E2",
"X. c #B2D8E6",
"o. c #B8DBE7",
"O. c #C4DCE4",
"+. c #C1E0EA",
"@. c #C7E2EC",
"#. c #D2E5EB",
"$. c #D3E8EE",
"%. c #D8EAF1",
"&. c #DEF0F6",
"*. c #E4F1F5",
"=. c #EDF6F9",
"-. c #EDF8FB",
";. c #F7FBFC",
":. c #F8FBFC",
">. c #F9FBFC",
",. c #FBFDFD",
"<. c #FBFEFF",
"1. c #FDFEFE",
"2. c #FEFEFE",
"3. c #FFFEFE",
"4. c #FFFFFE",
"5. c white",
/* pixels */
"                                                                                                                                ",
"                                                                                                                                ",
"                                                                                                                                ",
"                                                                                                                                ",
"                                                                                                                                ",
"                                                  . . . . . . . . . . . .                                                       ",
"                                              . . . . . . . . . . . . . . . . . .                                               ",
"                                            . . . . + > 7 7 7 7 7 7 > = X . . . . . .                                           ",
"                                          . . . ; i C F H H H H H H G F N u , + . . . .                                         ",
"                                        . . . 9 A J H H H H H H H H H H J J G B e + . . .                                       ",
"                                      . . . ; A J H H H H H H H H H H H H H J J H N # . . .                                     ",
"                                      . . . M J H H H H H H H H H H H H J J J J J J n X . .                                     ",
"                                      . . - A J H H H H H H H J H G G A A C V V C F G 9 . . .                                   ",
"                                    . . . 9 G J H H H H J J F m e , ; # # + X X + # > > . . .                                   ",
"                                    . . . i G H H H H H H B > . . . . . . . . . . . . . . . . .                                 ",
"                                    . . + n H H H H H H C - . . . @ : 1 2 3 a a 5 1 & X . . . . .                               ",
"                                    . . ; M H H H H H G 7 . . < S R ~ / _ { $.%.#.O.[ Q D r @ . . .                             ",
"                                  . . . > N H H H H J n . . o D } ' ' ' X.2.2.2.2.2.2.,.;.O.E a . . .                           ",
"                                  . . . 9 V H H H H H e . . 1 U ' ' ' ' ..;.2.2.2.2.2.2.2.2.&./ 3 . . .                         ",
"                                  . . . 0 Z J H H H H 0 . . r D ` ' ' ' ' @.=.,.;.:.,.2.2.2.*.| L . . .                         ",
"                        . . . . . . . . t F H H H H H 9 . . r x W ' ' ' ' ' ] ......X.o.O.+. .' ~ < . .                         ",
"                    . . . . . . . . . . y G H H H H J 0 . . 5 l c Y ~ ` ' ' ' ' ' ' ' ` ` ` ) ~ T 3 . . .                       ",
"                  . . . . = , q 0 X . X i G H H H H J i . . < l l j c P Y E W W E T U P D D v z l 3 . . .                       ",
"                  . . + p A G J F # . X p H H H H H J M . . $ j l l l l l l l l l l k l l l l l l 2 . . .                       ",
"                . . . i J H H J C + . X b H H H H H J C + . o f l l l l l l l l l l l l l l l l l * . .                         ",
"                . . # C J H H J B X . + b H H H H H H G , . . 2 l l l l l l l l l l l l l l l z a . . .                         ",
"              . . . 9 F B N N B b . . # b G H H H H H J b X . o a l l l l l l l l l l l l l h r O . . .                         ",
"              . . . y n b b p b e . . = p A H H H H H H G 7 . . o 5 d h j j j j j h g d r 1 $ . . . .                           ",
"              . . X y b b b b b 9 . . ; p B H H H H H H H Z , . . . . $ % & & % $ O . . . . . . . . .                           ",
"              . . + i b b b b b 9 . . ; b M G H H H H H H J A e X . . . . . . . . . . . . . + + . . .                           ",
"              . . # p b b b b b 9 . . > b b C H H H H H H H H H N y 7 - = + # = = > 7 q i M b q . . .                           ",
"              . . ; p p b b b b 9 . . > b p M G H H H H H H H H J J H F F Z A F F G H H J H m e . . .                           ",
"              . . > b b b b b b 9 . . ; b b b B H H H H H H H H H H H H H H J H H H H H H F b e . . .                           ",
"            . . . , b b b b b b 9 . . > p b b b Z H H H H H H H H H H H H H H H H H H H J V p t X . .                           ",
"            . . . 8 b b b b b b 9 . . > b b b p m F J H H H H H H H H H H H H H H H H H H M b y . . .                           ",
"            . . . 8 b b b b b b 9 . . > b b b b p M F H H H H H H H H H H H H H H H H H G n b u X . .                           ",
"            . . . 7 b b b b b b 8 . . > b b b b p p M F H H H H H H H H H H H H H H H H C b b u + . .                           ",
"            . . . 7 b b b b p b 9 . . > b b b p b b p M F H H H H H H H H H H H H H H H N p b i X . .                           ",
"            . . . 7 b b b b b b 9 . . > b p b b b b b p n Z H J H H H H H H H H H H H Z b b b i + . .                           ",
"            . . . 7 b b b b b b 8 . . > b b b p b b b b b b N F H H H J H H H H H H F m b b p i X . .                           ",
"              . . > p p b b b b , . . , p b b b b p b b b b p b M V F G G G G F Z B n b b b b i X . .                           ",
"              . . = p b b b b b , . . 7 b b b b b b b b b p b b p b b n n n n n b b p b p b b u X . .                           ",
"              . . X u b b p b b > . . 7 b b p b b b b b b b b b b b b b p b p b b b b b b b b y X . .                           ",
"              . . . 7 b b b b p ; . . 9 b b b b p b b b b b p b p b b b b b b b p b b b b b b e . . .                           ",
"                . . X 9 i b b p = . . e b b b b b b b b b b b b b b b b b b p p b b p b b b b q . . .                           ",
"                . . . . # , w t # . . e b b b b b b b p b p w 7 0 e y i i p p p u t y b b p b 9 . . .                           ",
"                  . . . . . . X . . X y b b b b b b b b b 0 . . . . X + # # # # X X 9 b b b b , . . .                           ",
"                      . . . . . . . X u b b b b b b b b b , . . . . . . . . . . = q p b b b p ; . .                             ",
"                            . . . . X y b b b b b b p b b > . . .     . . . - y p b b b b b i # . .                             ",
"                                . . . t b b b b b b b b b ; . .       . . . 7 b b p b b b b y X . .                             ",
"                                . . . e b b b b b b b b p - . .       . . . 7 b b b p b b b 9 . . .                             ",
"                                . . . 0 b b b b b b b p p - . .         . . > p b p b b b p - . .                               ",
"                                . . . , b b b b b p b b p # . .         . . # p b b b b b q . . .                               ",
"                                  . . = p b b b b b b b i + . .         . . . , u p p i 0 + . . .                               ",
"                                  . . . e b b b b b b b t . . .           . . . X - - + . . . .                                 ",
"                                  . . . # t i p p p p i > . . .           . . . . . . . . . .                                   ",
"                                    . . . . # # = ; ; + . . .                 . . . . . .                                       ",
"                                      . . . . . . . . . . . .                                                                   ",
"                                          . . . . . . . .                                                                       ",
"                                                                                                                                ",
"                                                                                                                                ",
"                                                                                                                                ",
"                                                                                                                                ",
"                                                                                                                                "
};
