/* XPM */
static char *_4075b063b9c4052eac6584006dc1de7Ntfu0xXQg2w0Q5xJ[] = {
/* columns rows colors chars-per-pixel */
"64 64 164 2 ",
"   c #010101",
".  c #0B0302",
"X  c #010708",
"o  c #030A0B",
"O  c #0C0C0C",
"+  c #14100F",
"@  c #050F10",
"#  c #051214",
"$  c #0A1617",
"%  c #051619",
"&  c #081719",
"*  c #06191C",
"=  c #091B1C",
"-  c #121313",
";  c #161718",
":  c #1A1A1A",
">  c #251F1E",
",  c #051E22",
"<  c #0A1E21",
"1  c #072024",
"2  c #092226",
"3  c #07262A",
"4  c #082529",
"5  c #0C2A2D",
"6  c #0B2C31",
"7  c #0B3136",
"8  c #0B343A",
"9  c #0D393F",
"0  c #113033",
"q  c #11363A",
"w  c #11393D",
"e  c #232424",
"r  c #262828",
"t  c #2A2B2B",
"y  c #2B2524",
"u  c #2F3131",
"i  c #333434",
"p  c #363838",
"a  c #3A3B3B",
"s  c #403C3B",
"d  c #0D3C43",
"f  c #123E42",
"g  c #0E4047",
"h  c #0E434B",
"j  c #134146",
"k  c #13464C",
"l  c #0C4952",
"z  c #104750",
"x  c #144C53",
"c  c #114F59",
"v  c #175157",
"b  c #185257",
"n  c #165259",
"m  c #19555B",
"M  c #19585F",
"N  c #3F4142",
"B  c #135660",
"V  c #145A64",
"C  c #1A5B62",
"Z  c #155E69",
"A  c #185F6A",
"S  c #13616D",
"D  c #19626D",
"F  c #176673",
"G  c #176976",
"H  c #1A6976",
"J  c #156B79",
"K  c #186E7B",
"L  c #19717E",
"P  c #434343",
"I  c #4B4C4C",
"U  c #504D4D",
"Y  c #4E5050",
"T  c #525252",
"R  c #5A5756",
"E  c #5B5B5B",
"W  c #636363",
"Q  c #676869",
"!  c #6C6C6C",
"~  c #737373",
"^  c #7C7D7D",
"/  c #1A7583",
"(  c #1B7886",
")  c #1C7B8A",
"_  c #1D808F",
"`  c #168192",
"'  c #1D8393",
"]  c #178B9D",
"[  c #1E8C9D",
"{  c #208696",
"}  c #218C9D",
"|  c #1F8FA0",
" . c #1790A3",
".. c #1E91A3",
"X. c #1895A9",
"o. c #1D9AAD",
"O. c #1C9DB2",
"+. c #2094A5",
"@. c #2196A9",
"#. c #2199AC",
"$. c #229EB1",
"%. c #1DA1B5",
"&. c #1DA6BB",
"*. c #1DA8BD",
"=. c #7F8080",
"-. c #1DACC2",
";. c #1DB0C7",
":. c #1CB6CE",
">. c #1DB9D2",
",. c #1EBFD8",
"<. c #1EC1DB",
"1. c #1FC6E0",
"2. c #838484",
"3. c #8F8E8E",
"4. c #8F9090",
"5. c #979797",
"6. c #959595",
"7. c gray61",
"8. c #9A9A9A",
"9. c #A7A7A7",
"0. c #A3A4A4",
"q. c #AFAFAF",
"w. c #AAABAB",
"e. c #AFB0B0",
"r. c #B4B5B5",
"t. c #B7B8B8",
"y. c #BBBDBD",
"u. c #C1C2C2",
"i. c #C2C3C3",
"p. c #C7C8C8",
"a. c #CBCCCC",
"s. c #D7D7D7",
"d. c #D5D5D5",
"f. c #D7D8D9",
"g. c #DDDDDD",
"h. c #DADBDB",
"j. c #DFE1E1",
"k. c #DFE0E0",
"l. c #E1E1E1",
"z. c #E5E5E5",
"x. c #E5E6E6",
"c. c #E3E4E4",
"v. c #E7E8E8",
"b. c #E9E9E9",
"n. c #EEEFEF",
"m. c #ECECEC",
"M. c gray95",
"N. c #F3F3F3",
"B. c #F4F4F4",
"V. c gray96",
"C. c #F6F6F6",
"Z. c gray97",
"A. c #F6F5F5",
"S. c #F5F5F5",
"D. c #F8F7F7",
"F. c #F8F8F8",
"G. c #F9F9F9",
"H. c gray98",
"J. c #FBFBFB",
"K. c gray99",
"L. c #FDFDFD",
"P. c #FEFEFE",
"I. c white",
"U. c #FBFBFB",
/* pixels */
"I.F.F.I.M.F.I.M.I.V.F.I.V.I.F.V.I.V.F.I.V.I.I.M.I.V.V.I.M.I.F.V.I.V.V.I.M.F.I.V.I.F.V.I.V.I.I.M.I.V.V.I.M.I.F.V.I.V.V.I.M.F.I.M.",
"F.F.F.F.I.F.F.I.V.I.F.F.I.V.F.I.V.I.I.V.I.V.F.I.V.I.F.F.I.F.F.I.V.I.I.F.I.F.F.F.V.I.I.V.I.V.F.I.V.I.F.F.I.F.F.I.V.I.I.F.I.F.F.I.",
"F.F.I.F.I.F.F.I.F.F.I.F.I.F.F.I.F.F.I.V.F.F.F.F.F.F.I.F.I.V.F.I.F.F.I.F.I.F.F.I.F.F.I.V.F.F.F.F.F.F.I.F.I.V.F.I.F.F.I.F.I.F.F.I.",
"I.F.F.I.V.F.I.V.I.F.F.I.V.F.I.M.I.F.V.I.V.I.I.V.I.F.F.I.V.I.F.V.I.F.V.I.V.F.I.V.I.F.V.I.V.I.I.V.I.F.F.I.V.I.F.V.I.F.V.I.V.I.F.M.",
"V.I.I.V.I.F.F.I.V.I.I.V.I.V.F.I.V.F.I.V.I.F.F.I.V.I.I.V.I.V.F.I.M.I.I.V.I.F.F.I.V.I.F.V.I.F.F.I.V.I.I.V.I.V.F.I.M.I.I.V.I.V.F.I.",
"F.F.F.F.F.F.F.F.I.F.V.F.V.I.F.F.I.F.F.I.F.I.F.F.I.F.F.F.V.I.F.F.I.F.F.F.F.F.I.F.I.F.F.I.F.I.F.F.I.F.F.F.V.I.F.F.I.F.F.F.V.I.F.F.",
"I.F.F.I.F.I.F.F.F.F.F.I.F.F.I.F.I.V.F.I.F.F.I.V.F.F.F.I.F.F.I.F.F.F.F.I.F.F.F.F.I.V.F.I.F.F.I.V.F.F.F.I.F.F.I.F.F.F.F.I.F.F.I.V.",
"V.F.I.V.I.F.F.I.V.I.I.V.I.F.F.I.V.I.F.V.I.F.V.I.V.I.I.M.I.F.F.I.V.I.I.V.I.F.F.I.V.F.I.V.I.F.V.I.V.I.I.M.I.F.F.I.V.I.I.V.I.F.F.I.",
"I.F.F.I.M.I.I.V.I.V.F.I.V.F.I.V.I.F.F.I.V.I.I.V.I.F.F.I.V.I.F.V.I.V.F.I.V.F.I.V.I.F.F.I.M.I.F.V.I.V.F.I.V.I.I.V.I.V.F.I.V.I.F.V.",
"F.I.F.F.I.F.F.F.V.I.F.F.I.F.V.I.F.I.F.F.I.F.F.F.F.F.I.F.I.F.F.I.V.I.F.F.I.F.F.I.V.F.I.F.I.F.F.I.F.I.F.F.I.F.V.F.V.I.F.F.I.F.V.I.",
"F.F.I.V.F.F.F.I.F.F.I.F.I.F.F.I.F.F.I.V.F.F.F.I.F.F.F.F.F.F.F.I.F.F.I.F.I.V.F.I.F.F.F.F.I.F.F.I.F.I.I.V.F.F.F.I.F.F.I.F.I.F.F.I.",
"I.F.V.I.V.I.I.V.I.F.F.I.V.I.F.V.I.F.V.I.V.I.I.M.I.F.F.I.V.I.F.V.I.F.F.I.V.I.F.V.I.F.F.I.V.F.I.V.I.V.V.I.V.I.I.V.I.F.F.I.V.F.I.M.",
"V.I.F.V.I.F.F.I.M.I.I.V.I.V.F.I.M.I.F.V.I.F.F.I.V.I.I.V.I.Z.Z.I.V.F.F.S.I.F.F.I.V.I.I.M.I.F.F.I.V.I.F.V.I.F.F.I.M.I.I.V.I.F.F.I.",
"I.V.F.I.F.I.F.F.I.F.F.F.V.I.F.F.I.F.F.I.F.F.U.F.F.V.V.F.F.I.I.I.I.I.I.I.F.F.V.S.F.F.V.I.F.F.F.F.I.V.F.I.F.I.F.F.I.F.F.F.F.F.I.F.",
"I.F.F.I.F.F.I.V.F.F.F.I.F.F.I.V.I.F.F.I.F.F.V.V.I.I.I.I.V.n.z.k.z.j.z.M.F.I.I.I.I.V.F.I.F.I.F.F.I.F.F.I.F.F.I.V.F.F.F.I.F.F.F.F.",
"M.I.F.V.I.F.V.I.V.I.I.V.I.F.F.I.V.F.I.V.I.F.I.I.s.7.W a r ; O O O O - : r a E 8.g.I.F.V.I.F.F.I.M.I.F.V.I.F.V.I.V.I.I.V.I.F.F.I.",
"I.V.F.I.V.I.F.V.I.F.F.I.V.I.U.V.I.F.V.I.I.F.w.P o                               O ! n.I.S.I.F.S.I.F.F.I.V.F.I.M.I.F.F.I.V.I.F.V.",
"V.I.F.F.I.F.F.I.F.I.F.F.I.F.F.I.F.F.I.I.q.t           @ 4 6 d d h d 8 7 4 % X       i b.I.F.F.I.F.F.I.F.I.F.F.I.F.F.F.F.I.F.V.I.",
"F.F.I.F.I.F.F.I.F.F.U.V.F.D.F.F.V.I.b.I         3 S  .-.>.,.,.,.<.<.<.>.>.-.O.J *     I I.V.F.I.F.F.F.F.I.F.V.I.F.I.F.F.I.F.F.I.",
"I.F.F.I.V.F.I.M.I.F.F.I.V.I.I.M.I.p.:       8 ] >.<.,.>.:.:.:.:.;.:.:.:.:.>.,.<.:.6     u.I.F.V.I.F.F.I.V.F.I.V.I.F.F.I.V.F.I.M.",
"M.I.I.V.I.V.F.I.V.F.I.V.I.D.V.I.u.+     % ` <.<.:.:.:.:.:.:.>.:.>.>.:.:.:.:.:.;.<.X.    2.I.S.I.V.I.F.V.I.F.V.I.M.I.I.V.I.F.F.I.",
"I.F.V.I.V.I.F.F.I.F.F.I.F.F.I.h.;     8 -.<.:.:.:.:.:.:.>.:.:.:.:.:.>.:.:.:.:.>.:.o.@   R I.V.V.I.F.F.I.V.I.I.F.I.F.F.F.F.F.I.F.",
"F.F.F.F.F.F.I.F.I.V.F.F.F.F.I.P     d >.>.:.:.:.:.>.>.:.:.:.:.:.:.:.:.>.>.>.:.*.o.{ $   I I.F.I.F.V.F.I.F.F.I.F.F.F.F.I.F.F.F.F.",
"V.I.I.V.I.F.F.I.M.I.I.V.I.I.5.    2 :.>.;.:.:.:.:.:.:.:.:.>.>.>.>.>.:.;.-.O...[ } ` O   Q I.c.k.V.I.F.V.I.F.V.I.V.I.I.V.I.F.F.I.",
"I.V.F.I.M.I.F.V.I.V.F.I.V.V.t     ..<.:.>.:.>.>.>.>.>.>.:.:.-.&.%.o.....[ [ [ [ @.S     T E O   i y.I.U.B.I.I.V.I.V.F.I.V.I.F.V.",
"V.I.F.F.I.F.F.I.V.I.F.V.I.q.    l 1.:.:.:.:.-.-.&.O.o.....[ ' [ [ ] [ [ [ [ [ +.[ *         X @     9.I.D.F.F.F.V.I.F.F.I.F.V.I.",
"F.F.I.F.I.F.F.I.F.F.I.M.I.Q     ` -.O.o.....[ ..+.+.@.@.@.#.@.@...o...+.o...@.) ,       X k ' | D X   u.I.V.F.I.F.F.I.F.I.F.F.I.",
"I.F.F.I.V.F.I.V.I.F.V.I.I.I   @ ' { [ | @...[ ) K S n z z h h d 8 7 7 8 d B n X       1 / #...} #.H   t n.I.U.V.I.F.F.I.V.F.I.M.",
"V.I.I.V.I.F.F.I.V.I.I.M.I.T   O [ #...) n 7 # X                                   X c | ..[ [ [ [ #.c   2.I.B.I.M.I.I.V.I.F.F.I.",
"F.F.F.F.F.F.F.F.I.F.F.F.I.!   X Z x * X             O , 6 d k z n V V B x 8 #     # / @.[ | | | [ | | % - z.I.V.I.F.F.F.F.F.I.F.",
"I.F.F.I.F.I.F.F.F.F.F.V.I.8.                  2 c K ` } ..@.@.@.o...@.o.@.@.' n @     z +.| | [ [ [ @.D   8.I.V.F.F.F.I.F.F.F.F.",
"V.F.I.V.I.F.F.I.V.I.I.M.I.a.            X d / o.$.$.#.+...[ [ | +.@...| [ [ | o.' d     d @.[ | | } [ [   U I.F.V.I.I.V.I.F.F.I.",
"I.F.F.I.M.I.I.V.I.V.F.I.V.V.r         6 ) #.#.[ K n d 5 < % % < 5 d B ( +.@.[ [ | @.V     V @.[ } | [ @.1 > G.Z.I.F.F.I.S.U.I.S.",
"F.I.F.F.I.F.F.F.F.I.F.D.D.I.~   X X V ..#./ d #                         < Z +.| [ [ #.c   * [ | [ | [ @.d . j.I.F.H.H.F.U.F.F.U.",
"F.F.I.V.F.F.F.I.F.F.I.V.I.l.t   # ( $.[ d X     X * 5 8 f j j f 8 5 & X     6 [ ..[ ..[ #   G @.[ | [ #.l   s.I.S.H.U.F.I.F.F.U.",
"I.F.V.I.V.I.I.V.I.F.V.I.n.i   , ' #.( *     = f x M M M M n m m M M M k 5 X   4 | } [ @.d   l @.[ } [ #.h . c.I.I.F.F.I.V.U.U.V.",
"V.I.F.V.I.F.F.I.V.I.V.I.W   & ' @.( #   O j M m m m b x b M b b v v v m C j X   z o.[ @.B   7 +.[ | [ +., y F.I.M.I.I.V.I.F.F.I.",
"I.V.F.I.F.F.F.F.I.V.I.q.  o ( +.} 1   # x m v v M f $ X # 5 x m v b v v v M w   X ) | ..F   1 +.[ [ +.)   ^ I.B.I.F.V.I.F.U.F.F.",
"I.F.F.I.F.I.F.F.I.F.V.i   B @.+.F   X x m x b m 5           X f M v n b n v M *   x +.+.L   * [ | [ @.3 O g.I.V.F.F.F.F.F.U.U.F.",
"M.I.F.V.I.F.F.I.M.I.t.  2 +.[ @.d   5 C m C b <     ! h.w.u   X j m v b n v M 0   6 +.../   # [ [ @.x   6.I.B.I.V.I.I.V.I.F.F.I.",
"I.F.F.I.V.I.F.V.F.I.~   Z @.{ #.6   5 j q 0 $   O w.I.F.I.F.I   = m b b b v M f   < | ..L   % [ @.S   R I.F.I.V.I.F.F.I.V.I.F.V.",
"F.F.F.F.I.F.F.I.V.I.T   ( +.+.F o             : p.I.F.I.V.I.d.  X x b b n v M f   , | @.J   * #.H   p M.I.F.V.F.F.F.F.F.I.F.V.I.",
"F.I.F.F.I.F.F.I.V.I.P   { @.B     X e a I Q 4.v.I.F.I.F.I.g.I   @ n b b b b M w   4 +.+.Z   8 )   r z.I.F.F.F.I.F.I.F.F.I.F.F.I.",
"I.F.F.I.V.F.I.M.I.I.T   { ( X   T p.F.I.I.I.I.I.I.I.F.I.u.O     d M b b b b M 5   d +.@.d   5 @ : h.I.I.V.I.I.V.I.F.F.I.V.F.I.M.",
"V.I.I.V.I.V.F.I.M.I.=.  ( d   N c.I.I.I.F.U.I.I.I.I.I.I.p   = k m v b n b v m &   n #.[ *     ; a.I.F.V.I.F.F.I.M.I.I.V.I.F.F.I.",
"F.F.V.F.V.I.F.F.F.I.t.  f #   9.V.U.I.F.I.v.s.I.I.I.I.I.p   5 M v n n v v m x X   / #.H     - p.I.V.F.K.F.I.F.F.I.F.F.F.F.F.I.F.",
"I.F.F.I.F.F.I.F.I.F.D.t     O y.z.I.I.I.v.e 2.I.F.I.U.I.t.    w m b v v v M 5   , | o.8   - p.I.F.F.F.I.F.F.I.V.F.F.F.I.F.F.F.F.",
"M.I.I.V.I.F.F.I.V.F.I.7.  X   ! h.M.I.y.:   a.I.I.I.I.U.I.^   & M b m m M q X   Z #./   - p.I.F.V.K.K.V.I.F.V.I.V.I.I.V.I.F.F.I.",
"I.F.F.I.M.I.F.V.I.V.F.I.R   X   a T p .   P l.I.I.I.I.U.I.s.  X k x k j 2     d +.+.6   u.I.V.V.I.F.F.I.V.I.F.V.I.V.V.I.V.I.F.V.",
"F.F.I.F.I.F.F.I.V.I.F.F.S.i   .       X   R s.n.I.K.I.K.I.s.                h | #.A   ~ I.V.F.F.F.F.I.F.I.F.F.I.V.I.I.F.I.V.F.I.",
"F.F.F.F.I.F.F.I.F.F.I.V.I.z.i   X . .     r a.s.V.I.I.D.I.9.  X o X o # 7 K @.#.H   a V.I.V.F.I.F.F.F.F.I.V.F.I.F.F.I.F.I.F.F.I.",
"I.F.F.I.V.F.I.V.I.F.F.I.S.I.n.R       X X   I r.a.g.l.s.9.t   8 | ' [ +.$.$.| x   t c.I.M.I.I.V.I.F.F.I.V.F.I.V.I.F.V.I.V.I.F.M.",
"V.I.I.V.I.F.F.I.V.I.U.V.I.V.F.I.t.P X         X r p P a O   @ ) @.} { _ H d o   I n.I.M.I.F.F.I.V.I.I.V.I.V.F.I.M.I.I.V.I.V.F.I.",
"F.F.F.F.F.F.F.F.U.F.F.U.F.F.F.V.I.I.h.7.E p :                 X             a r.I.F.D.U.F.I.F.F.I.F.F.F.V.I.F.F.I.F.F.F.V.I.F.F.",
"I.F.F.I.F.I.F.F.I.F.F.I.F.U.U.F.F.V.I.I.I.I.n.h.u.w.5.=.~ W R R R W ~ 3.r.c.I.I.U.F.F.U.F.F.I.V.F.F.F.I.F.F.I.F.F.F.F.I.F.F.I.V.",
"V.F.I.V.I.F.F.I.V.F.U.V.I.F.F.I.V.I.F.M.F.D.F.I.I.I.I.I.I.I.I.I.I.I.I.I.I.F.V.I.V.F.I.V.I.F.V.I.V.I.I.M.I.F.F.I.V.I.I.V.I.F.F.I.",
"I.V.F.I.V.I.I.V.I.F.F.I.V.I.F.V.I.F.F.I.V.I.I.M.I.M.V.I.M.F.F.M.U.B.V.I.M.I.F.V.I.F.F.I.V.I.I.V.I.F.F.I.M.I.I.V.I.V.F.I.V.I.F.V.",
"F.I.F.F.I.F.V.F.F.U.F.F.I.F.F.I.F.I.F.F.I.F.F.F.V.I.F.F.I.F.F.F.D.U.F.F.F.F.F.I.F.F.F.F.I.F.F.F.F.I.F.F.I.F.F.F.V.I.F.F.I.F.V.I.",
"F.I.I.V.F.F.F.I.F.F.I.F.I.F.F.I.F.F.I.V.F.V.F.I.F.F.F.F.F.F.F.I.F.F.I.F.I.F.F.I.F.I.F.F.F.F.F.I.F.F.I.V.F.F.F.I.F.F.I.F.I.F.F.I.",
"I.V.V.I.V.I.I.V.I.F.F.I.V.F.I.M.I.F.V.I.V.I.I.V.I.F.F.I.V.I.I.V.I.F.D.I.M.I.F.V.I.F.F.I.V.I.I.M.I.F.V.I.V.I.I.V.I.F.F.I.V.F.I.M.",
"V.I.I.V.I.F.F.I.V.I.I.V.I.V.F.I.M.I.F.V.I.F.F.I.V.I.F.V.I.F.F.I.M.I.I.V.I.F.F.I.V.I.F.V.I.V.F.I.V.I.F.V.I.F.F.I.V.I.F.V.I.F.F.I.",
"F.F.F.F.F.I.F.F.F.F.V.I.V.I.F.F.I.F.F.I.F.I.F.F.I.F.F.I.F.I.F.F.I.F.F.F.F.F.I.F.I.F.F.I.F.I.F.F.I.F.V.I.F.F.F.F.I.F.F.I.F.F.I.F.",
"I.F.F.I.F.F.F.F.I.F.F.F.F.F.I.F.I.F.V.I.F.F.I.V.I.F.F.I.F.F.I.V.F.F.V.I.V.I.F.F.F.F.F.I.F.I.I.V.I.F.F.I.F.I.I.V.F.F.F.I.V.I.F.F.",
"M.F.I.V.I.F.F.I.M.I.I.V.I.F.V.I.V.F.I.V.I.F.V.I.M.I.F.M.I.V.V.I.V.I.I.V.I.F.V.I.V.I.F.M.I.V.V.I.M.I.F.V.I.V.V.I.V.I.F.V.I.F.V.I."
};
