/* XPM */
static char *_f9bb053056c46a8d5fc46198a8b3a5fRVpwKJam236OUOsD[] = {
/* columns rows colors chars-per-pixel */
"64 64 161 2 ",
"   c None",
".  c #1C010C",
"X  c #1A0511",
"o  c #1A0915",
"O  c #1A0D19",
"+  c #18111E",
"@  c #22010D",
"#  c #2B020C",
"$  c #3B040C",
"%  c #260111",
"&  c #2C0213",
"*  c #310216",
"=  c #3C0312",
"-  c #360218",
";  c #3B031B",
":  c #320913",
">  c #171522",
",  c #142333",
"<  c #1D2737",
"1  c #122738",
"2  c #13293A",
"3  c #1B2838",
"4  c #222736",
"5  c #2B2534",
"6  c #332432",
"7  c #3A2330",
"8  c #45040D",
"9  c #4C050D",
"0  c #54060D",
"q  c #5A070D",
"w  c #42031E",
"e  c #4D0516",
"r  c #5B0618",
"t  c #4A141D",
"y  c #63070E",
"u  c #6C080E",
"i  c #65080D",
"p  c #74090E",
"a  c #7F0A0E",
"s  c #470420",
"d  c #4B0422",
"f  c #510424",
"g  c #5A0529",
"h  c #591F29",
"j  c #541F2A",
"k  c #64062E",
"l  c #7B082B",
"z  c #611E27",
"x  c #6B1B24",
"c  c #7B1B22",
"v  c #6C0731",
"b  c #740735",
"n  c #760837",
"m  c #7B0836",
"M  c #7A0838",
"N  c #40222F",
"B  c #4B212D",
"V  c #52202B",
"C  c #172E41",
"Z  c #1B3445",
"A  c #1C364A",
"S  c #1E394E",
"D  c #233D4E",
"F  c #203C51",
"G  c #25435A",
"H  c #2A475C",
"J  c #2D4B5E",
"K  c #2B4A63",
"L  c #3A596A",
"P  c #345773",
"I  c #355975",
"U  c #3E5E70",
"Y  c #395E7B",
"T  c #526E7D",
"R  c #810A0E",
"E  c #8B0B0F",
"W  c #950C0F",
"Q  c #990C0F",
"!  c #890A1C",
"~  c #85191F",
"^  c #8A191E",
"/  c #94171C",
"(  c #9E161A",
")  c #A20D0F",
"_  c #AA0E12",
"`  c #AC0D1E",
"'  c #A30E10",
"]  c #B40F10",
"[  c #BA0F16",
"{  c #B30E1A",
"}  c #A71517",
"|  c #AA1417",
" . c #A51518",
".. c #B41315",
"X. c #BD1014",
"o. c #8D0A2D",
"O. c #83092D",
"+. c #9B0B26",
"@. c #920A2B",
"#. c #840932",
"$. c #890930",
"%. c #A30C22",
"&. c #A80D20",
"*. c #C61111",
"=. c #C81111",
"-. c #3C6382",
";. c #436A85",
":. c #426B8B",
">. c #547788",
",. c #456F90",
"<. c #467092",
"1. c #497597",
"2. c #4D7A9D",
"3. c #4A7699",
"4. c #4F7DA1",
"5. c #507EA2",
"6. c #648A9B",
"7. c #708B98",
"8. c #5583A6",
"9. c #5887A9",
"0. c #5C8BAC",
"q. c #6A96A7",
"w. c #6B96A8",
"e. c #6494B2",
"r. c #699AB7",
"t. c #6FA0BC",
"y. c #76A4B6",
"u. c #7EA8B9",
"i. c #72A3BE",
"p. c #76A8C2",
"a. c #7CAEC4",
"s. c #7DB0C8",
"d. c #8BA1AC",
"f. c #9AADB7",
"g. c #9FB4BD",
"h. c #84B6CB",
"j. c #87BACE",
"k. c #99B7C4",
"l. c #87BAD0",
"z. c #8ABED2",
"x. c #A3BAC4",
"c. c #8DC1D5",
"v. c #92C6D9",
"b. c #95CADC",
"n. c #9CCEDE",
"m. c #9ECFE0",
"M. c #A5D2E1",
"N. c #ACD5E3",
"B. c #B7D6E1",
"V. c #B4D9E6",
"C. c #B8DBE7",
"Z. c #CCE0E7",
"A. c #CAE4EC",
"S. c #D9EBF1",
"D. c #E2EFF4",
"F. c #E7F1F4",
"G. c #EFF6F8",
"H. c #E8F2F6",
"J. c #F2F7F9",
"K. c #F6F9FB",
"L. c #FCFCFC",
/* pixels */
"                                                      . . . . . . . . . . . .                                                   ",
"                                                . . . . . . . . . . . . . . . . . . .                                           ",
"                                            . . . . . . . . . . . . . . . . . . . . . . . .                                     ",
"                                        . . . . . . . . . . . . . . . . . . . . . . . . . . . .                                 ",
"                                      . . . . . . . . . # 8 0 i p p p p y 9 $ # . . . . . . . . .                               ",
"                                    . . . . . . . # 9 R ) ..*.*.*.*.*.*.*.X.] W u $ @ . . . . . . . .                           ",
"                                    . . . . . # 0 W ] =.=.=.*.*.*.*.*.*.*.*.*.*.*.] R 8 @ . . . . . . .                         ",
"                                  . . . . . $ E X.*.=.*.=.*.*.*.*.*.*.*.*.*.*.*.*.*.=.] a $ . . . . . . .                       ",
"                                  . . . . = ' *.*.*.*.*.*.*.*.*.*.*.*.*.*.*.*.*.*.=.*.=.=._ 0 @ . . . . . .                     ",
"                                . . . . & ! *.*.*.*.*.*.*.*.*.*.*.*.*.*.*.*.=.=.=.=.=.=.=.=.X.p # . . . . .                     ",
"                                . . . . g { *.*.*.*.*.*.*.*.*.*.*.=.*.*... ./ ^ ~ ^ ~ ~ ^ ~ ~ c t O O o X X .                   ",
"                              . . . . & l X.*.*.*.*.*.*.*.*.*.*.*.} c j 7 4 < 2 2 2 2 2 2 2 2 2 2 1 1 1 , , , ,                 ",
"                              . . . . w o.*.*.*.*.*.*.*.*.*.*.} h 5 1 2 2 2 2 2 2 2 2 2 2 2 2 2 2 2 2 2 2 2 2 2 2 2             ",
"                              . . . @ g +.*.*.*.*.*.*.*.*.*.^ 6 2 2 1 2 2 2 2 2 1 2 1 2 1 2 1 2 2 1 2 2 1 1 2 2 2 2 2 2         ",
"                            . . . . % v %.*.*.*.*.*.*.*.*.~ < 2 2 2 2 2 2 2 2 2 Z D Z Z Z D Z Z A Z 3 2 1 1 1 1 2 2 2 2 2       ",
"                            . . . . - b ` =.*.*.*.*.*.=.( 5 2 2 2 2 2 J U >.6.q.w.y.y.y.y.y.u.g.x.g.f.d.7.T L D 2 2 2 2 2 2     ",
"                            . . . . d n ` =.*.*.*.*.*.X.B 2 2 2 2 A ;.s.c.b.m.b.b.m.b.b.b.m.S.L.L.L.L.L.K.F.Z.k.>.D 2 2 2 2     ",
"                            . . . . g m { *.*.*.*.*.=.^ < 2 2 2 G <.p.m.b.b.b.b.b.b.b.b.b.N.J.L.L.L.L.L.L.L.L.K.Z.6.Z , 2 2 2   ",
"                          . . . . % v #.{ =.*.*.*.*.*.V 2 2 1 A :.9.l.b.b.b.b.b.b.b.b.b.b.n.D.L.L.L.L.L.L.L.L.L.L.B.U 1 2 2 2   ",
"                          . . . . * b m { *.*.*.*.=.| 6 2 2 1 K 2.0.z.b.b.b.b.b.b.b.b.b.b.b.V.S.H.J.K.L.L.L.L.L.L.A.q.2 2 2 2   ",
"                  . . . . @ . . . ; n #.[ *.*.*.*.=. .< 2 2 2 Y 4.9.z.b.b.b.b.b.b.b.b.b.b.b.b.b.M.M.V.A.S.G.K.L.H.M.d.D 2 2 2 2 ",
"            . . . . . . . . . . . s n m [ *.*.*.*.=./ 3 2 2 C :.4.8.s.b.b.b.b.b.b.b.b.b.b.b.b.b.b.b.b.b.n.M.V.V.M.b.c.J 1 2 2 2 ",
"        . . . . . . . . . . . . . d M #.[ *.*.*.*.=./ 3 2 2 Z :.4.4.0.c.b.b.b.b.b.b.b.b.b.b.b.b.b.b.b.b.b.b.b.v.b.m.j.K 1 2 2 2 ",
"      . . . . . . . . . . . . . X g M #.[ *.*.*.*.=.^ 3 2 2 Z <.4.4.2.e.h.b.b.b.b.b.b.b.b.b.b.b.b.b.b.b.b.b.b.b.b.b.a.H 1 2 2 1 ",
"      . . . . # $ 8 8 8 @ . . . @ k M #.[ =.=.*.*.=.( 3 2 2 C <.4.4.4.4.0.p.c.b.b.b.b.b.b.b.b.b.b.b.b.b.b.b.b.b.b.c.0.K 2 2 2 2 ",
"    . . . @ q W _ X.X.] i . . . % v M #.[ =.*.*.*.=. .4 2 2 C -.8.4.4.4.4.4.e.p.z.v.b.b.b.b.b.b.b.b.b.b.b.b.b.v.s.r.8.K 2 2 2 2 ",
"    . . . 8 ] =.*.=.=.=.u . . . & b M #.[ =.*.*.*.=.| 5 2 2 2 I 4.4.4.4.4.4.2.4.9.e.i.s.l.z.c.c.c.c.z.z.h.p.r.r.0.4.4.K 1 2 2 1 ",
"    . . @ R =.*.*.*.*.*.u . . . - n M $.X.=.*.*.*.*.X.7 2 2 2 G 3.4.4.4.4.4.4.4.2.4.5.5.8.9.0.0.0.0.0.9.8.5.4.4.8.8.-.A 1 2 2 2 ",
"    . . # Q =.*.*.*.[ *.y . . . ; M M #.[ =.*.*.*.*.X.V 2 2 2 Z -.4.4.4.4.4.4.4.4.4.4.4.4.4.4.4.4.4.4.4.4.4.4.4.4.3.K 2 2 2 2   ",
"  . . . $ _ ` +.o.o.o.@.e . . . s M M $.X.=.*.*.*.*.*.c 2 2 2 2 F :.8.4.4.4.4.4.4.4.5.4.4.4.4.4.5.4.4.4.4.4.4.4.<.K C 2 2 2 2   ",
"  . . . = O.m M n M M M ; . . . s M M #.[ =.*.*.*.*.=. .4 2 2 2 2 F -.2.4.4.4.4.4.4.4.4.4.4.4.4.4.4.4.4.4.4.<.I S 2 2 2 2 2     ",
"  . . . ; n M M n m M M w . . . s M M #.X.=.*.*.*.*.*.*.V 3 2 2 2 2 C K -.1.4.4.5.5.5.5.5.4.5.5.4.4.3.:.Y K A 2 2 2 2 2 2       ",
"  . . . s M M M M M n n w . . . d M M #.X.*.*.*.*.*.*.=. .7 2 2 2 2 2 2 C S K P -.-.:.:.:.-.:.Y I K F Z 2 2 2 2 2 2 2 1 1       ",
"  . . . w M M M M M M n ; . . . d M M #.X.=.*.*.*.*.*.*.*.( 7 2 2 2 2 2 2 2 2 2 C C C C C C C 2 2 2 2 2 2 2 2 2 2 1 , +         ",
"  . . . s n M M M M m n ; . . . f M M #.X.=.*.*.*.*.*.*.*.*.} V 3 2 2 2 2 2 2 2 2 2 2 2 2 2 2 2 2 2 2 2 2 2 1 3 , > . .         ",
"  . . . s n M M M M m b - . . . f M M #.[ *.*.*.*.*.*.*.*.*.*.X.^ V 4 3 2 2 2 2 2 2 2 2 2 2 2 2 2 2 1 2 1 5 B x : . . .         ",
"  . . . d m m M M M M n - . . . f M M m { =.*.*.*.*.*.*.*.*.*.=.*.*.| ~ h B 7 5 4 4 4 3 4 4 4 4 5 7 V z ^ } X.] 8 . . .         ",
". . . . d M M M M M n n ; . . . f M m m { =.*.*.*.*.*.*.*.*.*.*.*.*.*.=.*.X...|  . . . . . . .} | X.*.*.=.=.=.X.0 . . .         ",
". . . . d m M M M M m n ; . . . f M m m &.=.*.*.*.*.*.*.*.*.*.*.*.*.*.*.*.*.*.*.=.=.=.=.=.=.=.=.=.=.*.*.*.*.*.*.q . . .         ",
". . . . d M M M M M m n ; . . . f M M m %.=.*.*.*.*.*.*.*.*.*.*.*.*.*.*.*.*.*.*.*.*.*.*.*.*.*.*.=.*.*.*.*.*.*.*.y . . .         ",
". . . . f M M M M M M n - . . . f M M M +.*.*.*.*.*.*.*.*.*.*.*.*.*.*.*.*.*.*.*.*.*.*.*.*.*.*.*.*.*.*.*.*.*.*.*.r . . .         ",
". . . . g M M M M M M n ; . . . d M M M $.*.*.*.*.*.*.*.*.*.=.*.*.*.*.*.*.*.*.*.*.*.*.*.*.*.=.*.*.*.*.*.*.*.*.X.r . . .         ",
". . . . f M M M M M M n ; . . . f M M M #.[ *.*.*.*.*.*.*.*.*.*.*.*.*.*.*.*.*.*.*.*.*.*.*.*.*.*.*.*.*.*.*.*.*.` d . . .         ",
". . . @ g M M M M M M M w . . . f M M M M ` *.*.*.*.*.*.*.*.*.*.*.*.*.*.*.*.*.*.*.*.*.*.*.*.*.*.*.*.*.*.*.*.*.+.d . . .         ",
". . . @ f M M M M M M M ; . . . d M M M M +.*.*.*.*.*.*.*.*.*.*.*.*.*.*.*.*.*.*.*.*.*.*.*.*.*.*.*.*.*.*.*.*.X.$.d . . .         ",
". . . . f M M M M M M M w . . . d M M M M #.X.*.*.*.*.*.*.*.*.*.*.*.*.*.*.*.*.*.*.*.*.*.*.*.*.*.*.*.*.*.*.*.` #.d . . .         ",
". . . . g m M M M M M M ; . . . w M M M M m %.=.*.*.*.*.*.*.*.*.*.*.*.*.*.*.*.*.*.*.*.*.*.*.*.*.*.*.*.*.*.*.+.M d X . .         ",
". . . X d m M M M M M M w . . . d M M M M M o.X.*.*.*.*.*.*.*.*.*.*.*.*.*.*.*.*.*.*.*.*.*.*.*.*.*.*.*.*.*.{ #.m w . . .         ",
". . . . d M M M M M M M w . . . w m M M M M M %.*.*.*.*.*.*.*.*.*.*.*.*.*.*.*.*.*.*.*.*.*.*.*.*.*.*.*.*.*.+.m M ; . . .         ",
". . . . d M M M M M M M w . . . ; M M M M M M #.{ *.*.*.*.*.*.*.*.*.*.*.*.*.*.*.*.*.*.*.*.*.*.*.*.*.*.*.[ #.m n - . . .         ",
". . . . w M M M M M M M s . . . w M M M M M M M #.{ *.*.*.*.*.*.*.*.*.*.*.*.*.*.*.*.*.*.*.*.*.*.*.*.*.*.+.M M b & . . .         ",
". . . . ; M M M M M M M s . . . ; n M M M M M M n o.` *.*.*.*.*.*.*.*.*.*.*.*.*.*.*.*.*.*.*.*.*.*.*.*.+.m M M v & . . .         ",
". . . . - n M M M M M M s . . . ; n M M M M M M m M #.%.X.*.*.*.*.*.*.*.*.*.*.*.*.*.*.*.*.*.*.*.*.X.+.m M M m k % . . .         ",
"  . . . & b m M M M M M d . . . - n M M M M M M M M M m o.` X.*.=.=.*.*.*.*.*.*.*.*.*.*.*.*.*.*.{ o.M M M M m g . . . .         ",
"  . . . % v M M M M M M s . . . - b M M M M M M M M M M M m o.%.{ [ *.*.*.*.*.*.=.=.*.*.*.[ &.@.m M M M M M M d . . . .         ",
"  . . . @ g m M M M M M d . . . * b M M M M M M M M M M M M M M m #.o.+.%.%.` ` ` %.+.+.@.#.m M M M M M M M M s . . . .         ",
"  . . . . d M M M M M M f . . . * b M M M M M M M M M M M M M M m M M M M n m m M m M M M M M M M M M M M M M ; . . . .         ",
"  . . . . * b M M M M m f X . . & v M M M M M M M M M M M M M M M M M M M M M m M M M M M M M M M M M M M M n - . . . .         ",
"    . . . . g M M M M m f . . . & v M M M M M M M M M M M M M M M M M M M M M M M M M M M M M M M M M M M M b * . . .           ",
"    . . . . * v M M m m g @ . . % v M M M M M M M M M M M M M M M M M M M M M M M M M M M M M M m M M M M M v % . . .           ",
"    . . . . . * g k k g s . . . % v n M M M M M M M M M M M M M n n M M m M M M M M M M n b b v k v M M M m v % . . .           ",
"      . . . . . . % % % . . . . % k M M M M M M M M M M M M m k - ; ; w d d d d d d s ; ; - & & ; v M M M M g @ . . .           ",
"        . . . . . . . . . . . . % k m M M M M M M M M M M M M w . . . . . . . . . . . . . . @ ; v M M M M M f . . . .           ",
"          . . . . . . . . . . . % k M M M M M M M M M M M m n - . . . . . . . . . . . . . % d b M M M M M n w . . .             "
};
