/* XPM */
static char *_9972addcab04da5b229e75d2993f9e8Miu3pCxrmp3HQ36d[] = {
/* columns rows colors chars-per-pixel */
"64 64 254 2 ",
"   c #020102",
".  c #0C0403",
"X  c #07080C",
"o  c #190C09",
"O  c #18120C",
"+  c #070B16",
"@  c #171818",
"#  c #0E1418",
"$  c #250806",
"%  c #27170A",
"&  c #36140A",
"*  c #251A15",
"=  c #351C19",
"-  c #350505",
";  c #37230D",
":  c #3A2717",
">  c #332919",
",  c #0C1426",
"<  c #1B1D24",
"1  c #101834",
"2  c #1A2527",
"3  c #182B33",
"4  c #262728",
"5  c #342826",
"6  c #293436",
"7  c #363639",
"8  c #2B2B32",
"9  c #201F28",
"0  c #5A0307",
"q  c #491B19",
"w  c #4E1010",
"e  c #6C1516",
"r  c #482918",
"t  c #5B2717",
"y  c #4F3316",
"u  c #652817",
"i  c #683318",
"p  c #483B3B",
"a  c #5A3B3A",
"s  c #552926",
"d  c #7B2A2A",
"f  c #653736",
"g  c #75302E",
"h  c #3F413C",
"j  c #6B461D",
"k  c #724A1E",
"l  c #56453C",
"z  c #4D4730",
"x  c #744C22",
"c  c #754922",
"v  c #734F26",
"b  c #7A6D33",
"n  c #081A4E",
"m  c #172749",
"M  c #182B59",
"N  c #353D47",
"B  c #2E3546",
"V  c #13336A",
"C  c #253974",
"Z  c #4C3E44",
"A  c #2B4A4B",
"S  c #354C4C",
"D  c #3C4A4B",
"F  c #384647",
"G  c #33514D",
"H  c #394B51",
"J  c #3B525A",
"K  c #2F4D4F",
"L  c #304464",
"P  c #42494B",
"I  c #464446",
"U  c #564847",
"Y  c #494A59",
"T  c #565657",
"R  c #4C5154",
"E  c #695857",
"W  c #755A57",
"Q  c #6C4E4A",
"!  c #77605C",
"~  c #4A5B65",
"^  c #4F5868",
"/  c #58656A",
"(  c #566D77",
")  c #506B76",
"_  c #666568",
"`  c #7A6765",
"'  c #6B737B",
"]  c #971E1D",
"[  c #8C1011",
"{  c #BA090B",
"}  c #BA0E13",
"|  c #A81416",
" . c #B41316",
".. c #AB080A",
"X. c #8A211B",
"o. c #9B1D21",
"O. c #872526",
"+. c #952325",
"@. c #923433",
"#. c #B7312E",
"$. c #CD0101",
"%. c #CD0C0B",
"&. c #C70608",
"*. c #D40201",
"=. c #DA0102",
"-. c #D20608",
";. c #D30C0B",
":. c #D60907",
">. c #CC1716",
",. c #D31413",
"<. c #D31C1B",
"1. c #D61918",
"2. c #CB1012",
"3. c #E10102",
"4. c #D4221E",
"5. c #D21F21",
"6. c #D42523",
"7. c #D52C2B",
"8. c #D52926",
"9. c #D8322E",
"0. c #D83935",
"q. c #C9322D",
"w. c #E42628",
"e. c #98642D",
"r. c #D9423C",
"t. c #CD4E2F",
"y. c #E1403B",
"u. c #B1584F",
"i. c #B46F45",
"p. c #867775",
"a. c #90736E",
"s. c #AF726B",
"d. c #9A5D53",
"f. c #DB4441",
"g. c #DB4A43",
"h. c #DA4C49",
"j. c #DD534D",
"k. c #D6594D",
"l. c #DE5955",
"z. c #C75249",
"x. c #E25B57",
"c. c #E1544C",
"v. c #D8675C",
"b. c #E3655C",
"n. c #D67166",
"m. c #E36C64",
"M. c #E66A65",
"N. c #E6736A",
"B. c #E87C75",
"V. c #94883C",
"C. c #AA9E3E",
"Z. c #9A827C",
"A. c #A1827C",
"S. c #98A96B",
"D. c #CC8879",
"F. c #EA847C",
"G. c #E7837B",
"H. c #E09563",
"J. c #CFB951",
"K. c #153681",
"L. c #16448C",
"P. c #264E92",
"I. c #285BB4",
"U. c #2852A6",
"Y. c #3968B6",
"T. c #687589",
"R. c #567A88",
"E. c #2A5AC4",
"W. c #356BD2",
"Q. c #3A7CED",
"!. c #718792",
"~. c #7994A3",
"^. c #7DABBC",
"/. c #5E818D",
"(. c #7DD181",
"). c #3F93FA",
"_. c #908E8C",
"`. c #A99489",
"'. c #A69A92",
"]. c #BB9A93",
"[. c #AE8D87",
"{. c #9BA897",
"}. c #A4A697",
"|. c #B2AD95",
" X c #869BA4",
".X c #94AEB0",
"XX c #B1B2A4",
"oX c #CF9D91",
"OX c #EC8C85",
"+X c #EC948B",
"@X c #E99186",
"#X c #F2988D",
"$X c #ED9C93",
"%X c #EB9A95",
"&X c #F29C93",
"*X c #F88E85",
"=X c #CCAB9B",
"-X c #F2A69B",
";X c #EEA79C",
":X c #D7ADA4",
">X c #C3B9A8",
",X c #DBB4AC",
"<X c #DBB0A7",
"1X c #D8BAB7",
"2X c #CDB0AD",
"3X c #F4ACA3",
"4X c #E7B6AC",
"5X c #F4B5AA",
"6X c #F6B7AB",
"7X c #E7BEB7",
"8X c #F7BCB3",
"9X c #E9AEA5",
"0X c #BAC1A8",
"qX c #8AD089",
"wX c #CACCB3",
"eX c #CACFB5",
"rX c #ECC2B8",
"tX c #F5C4BB",
"yX c #FCC6BD",
"uX c #FCCABE",
"iX c #F8C3B6",
"pX c #F6C0AF",
"aX c #D7D48D",
"sX c #ADB9C6",
"dX c #ADCCD7",
"fX c #B0D1E5",
"gX c #A4D5DF",
"hX c #D0CACC",
"jX c #FDC7C1",
"kX c #FEC9C3",
"lX c #FDCEC9",
"zX c #F5CCC3",
"xX c #FDD1C5",
"cX c #FED4CB",
"vX c #FDDACD",
"bX c #F5D3CB",
"nX c #FDDCD3",
"mX c #FBDDDA",
"MX c #F8DAD5",
"NX c #EAD1CB",
"BX c #FBE3DC",
"VX c #FAE3DA",
"CX c #CAD5E9",
"ZX c #D9E6FB",
"AX c #D8F0F6",
"SX c #FCE6E1",
"DX c #FCEAE6",
"FX c #FCECEA",
"GX c #FDF4EE",
"HX c #FCF5F1",
"JX c #FCF9F5",
"KX c #FDFFFE",
"LX c #F3F7F6",
"PX c #E5F4F5",
/* pixels */
"l &.=.*.*.*.k.eXwX|.(.S.%.*.*.*.$.&.r.uXiX<.*.*.t.wXXXeX|.d.X.] { ,.*.*.*.=.*.*.*.*.=.*.*.*.*.*.*.*.:.d.@.=.*.*.*.*.*.*.:.*.*.*.",
"o.=.*.*.*.*.n.0XXX0XqX#.*.:.*.*.8.m.6XvX+X$.&.D.D.z.>X>X=Xd.&.:.9.9.*.*.*.*.*.*.*.*.*.*.*.=.*.*.*.*.9.#.*.*.*.*.*.*.*.*.-.:.*.*.",
"$.*.*.*.:.$.D.eX0XeXi.*.:.:.$.l.uXxXyXxXh.*.H.eXeXD.t.n.n.>.$.r.r.$.*.*.*.*.*.=.*.=.*.=.*.*.=.*.*.;.9.*.*.*.*.*.*.*.*.;.h.,.*.=.",
"*.=.:.;.:.%.=XoXz.t.2.:.*.*.0.uXjXlXnX3X;.i.C.aXeXeXz.>.$.:.j.g.:.*.*.*.=.*.*.*.*.*.*.*.*.*.*.:.*.9.1.*.*.*.*.:.*.*.6.b.4.$.$.*.",
":.*.7.4.*.4.v.&.*.$.*.*.*.*.%XnXxX9XN.<.t.z < i.v.>.$.*.,.j.8.*.*.=.*.*.*.*.*.=.*.=.*.*.*.*.=.*.6.f.$.*.*.*.*.*.=.1.8.%.1.j.B.OX",
"*.<.b.$.*.,.;.*.*.:.*.*.$.0.bX3Xr.%.$.*.>. .2.$.:.$.*.:.b.;.*.*.*.*.*.*.*.*.*.*.*.*.*.*.*.$.$.7.G.,.*.*.*.=.$.,.1.8.b.-XiX$Xc.9.",
"-.OX7.*.=.*.*.*.*.*.*.2.g.j.iX>.:.*.:.*.=.=.*.*.$.*.*.0.b.$.:.*.*.*.*.*.*.*.=.*.*.*.*.*.0.M.$XiXf.*.*.*.*.*.9.k.+XiX;XM.6.*.*.*.",
"@XOX*.*.*.*.*.*.*.*.$.B.0.B.m.:.b.*.*.*.*.*.*.*.:.*.$.G.8.*.*.*.*.*.*.*.*.*.*.*.*.*.*.0.uX+XM.<.*.*.*.*.-.N.8X5XOX7.$.$.*.*.=.*.",
"6X7.*.*.*.*.*.*.*.$.f.l.2.iX<.9.j.*.*.*.=.*.*.*.*.2.3X+X$.1.8.8.6.4.4.1.4.1.=.*.*.*.$.N.j.$.$.*.*.*.*.2.+XVX;X9.$.*.*.*.*.=.*.*.",
"B.$.*.*.*.*.*.*.;.8.+Xj.&X@X$.x.0.*.*.*.*.*.$.$.9.;XvX<.h.iXuXuXuXiXuXkX-X0.*.*.*.$.,.3X1.*.:.*.:.*.-.$XVXN.%.*.-.:.-.*.-.-.*.*.",
"<.$.*.=.*.*.$.l.5XuXyXvX6X%.6.G.;.*.*.*.*.h.OXOXuXvXl.x.cXuXuXjXkXzX@Xc.2.$.-.N.+XOX3X8X,.*.*.*.*.*.F.cXr.*.:.-.=.*.*.$.$.*.*.$.",
"*.*.:.*.$.r.$XlXxXjXzXkXg.0.f.6.*.*.*.$.6.tXvXcXlX$X@XvXuXuXuXjXiXr.$.&.f.B.;XxXbXcXnXG.$.*.*.:.*.h.uX9.$.*.*.$.*.8.f.j.c.x.m.B.",
"$.:.*.>.OXxXxXkXjXyXxXl.q.6.$.*.:.*.*.$.+XcXyXjXyXiXcXkXkXjXkXlX+Xv.OX5XxXvXlXjXjXyXxXv.m.1.*.*.*.6Xl.$.:.*.*.0.+XyXlXvXcXcXvXuX",
":.*.9.6XvXuXuXkXuXuXiXb.r.*.*.*.*.*.*.N.cXjXkXjXuXjXjXjXjXjXkXjXjXcXvXxXyXyXjXkXkXjXiXxXOX*.*.*.h.3X$.*.*.2.G.kXcXjXjXjXyXyXyXuX",
"$.g.yXxXyXuXjXjXyXxXG.4.;.*.*.*.$.7.%XxXjXjXjXjXuXkXlXjXjXjXkXlXuXjXyXjXyXjXkXkXkXuXxX5X2.*.x.$XxXN.$.2.j.6XxXuXuXuXkXkXuXuXuXuX",
"N.kXlXjXkXjXkXyXcX8X2.$.$.*.$.8.G.jXxXjXjXkXjXlXjXjXjXjXkXkXkXjXjXjXjXkXjXjXkXkXjXcX5X4.$.m.vXvX%X7.l.3XcXcXkXuXkXuXkXjXjXjXjXjX",
"xXuXkXzXlXlXyXuX8X0.$.*.$.7.F.jXvXuXuXjXjXkXkXkXkXjXkXjXkXjXjXjXjXkXkXkXkXkXkXjXcX3X%.%.G.xXkXyX+X6XnXxXjXtX,XzXkXjXjXtXkXuXuXuX",
"jXkXkXkX8X5XcX6X<.$.*.h.#XuXcXjXjXuXkXkXkXkXkXkXkXkXjXkXjXjXjXlXjXkXkXkXkXkXkXkXlXh.r.5XcXuXkXkXbXkXyXxXA.o . W cXkXlXlXkXcXlXzX",
"zXjXcX%Xq.0.v.h.$.%.N.cXcXkXjXuXjXjXjXjXkXjXkXkXkXkXjXjXjXjXjXjXjXjXjXjXjXjXjXjXjX8XcXxXyXjXjXkXjXyXjXrX< M L.+ `.DXmXBXBXBXBXBX",
"jXjXkXiX8X6X;X3X+X;XuXzXjXkXjXlXjXlXjXkXjXkXjXkXkXkXkXjXjXjXjXjXjXjXjXkXkXkXkXkXjXlXuXjXjXuXjXjXuXuXlX4XB W.W.L.5 cXkXzXkXzXkXzX",
"zXzXkXkXbXlXcXcXvXbXjXjXkXkXjXkXjXjXkXkXkXjXjXjXjXjXkXjXjXjXjXyXjXjXjX8XyXyXjXtXyXtXjXjXjXyXzXyXjXyXjXtX6 U.W.W.m a.kXyXjXyXyXyX",
"FXFXSXSXSXmXMXMXvXbXcXcXkXkXkXjXjXkXjXkXjXjXjXlXjXjXkXlXlXlXbXcXMXmXSXSXSXSXSXDXDXFXDXFXFXDXDXDXFXFXSXKX_ B T E.U.  U FXVXDXSXDX",
"jXjXjXuXuXuXjXkXkXkXkXjXkXlXlXkXlXjXkXkXkXkXjXlXkXlXjXmXFXHXJXKXLXKXKXKXKXKXKXKXKXKXKXKXKXKXKXKXKXKXLXKX_ j C.E.W.P.2 LXKXKXKXKX",
"kXkXkXkXkXjXyXtXuXtXjXjXyXuXuXuXjXkXtXjXjXjXjXjXjXyXyXyXyXuXzXzXzXlXcXmXmXMXmXmXmXmXMXMXMXmXmXmXmXmXBXMXB % z U.Y.E.1 XXJXDXDXFX",
"kXxXcXvXnXnXVXBXBXSXSXSXBXBXDXBXSXSXmXSXVXVXBXSXSXSXBXBXVXVXVXVXBXVXmXmXnXmXmXVXVXVXvXVXBXMXnXMXMXMXBXp + C m X 1 K.n Z lXyXjXjX",
"kXbXMXVXDXFXFXFXHXHXHXHXHXGXHXHXHXHXKXLXLXJXJXLXHXHXHXJXGXGXJXJXHXHXHXHXKXJXGXHXJXJXKXhX XDXFXFXDXFXHXI X 1 3 # . + n * 8XkXkXjX",
"kXkXuXtXtXuXtXjXuXuXuXuXuXuXuXtXuX7XW 7 4 p ,XuXuXuXuXuXuXiXtXtXyXtXuX<XZ.oXvXrX:X].Z.7 * 7XuXtXiXuXxX].      7 sX' . a.xXjXkXkX",
"jXyXyXuXjXjXjXtXiXuXiXuXuXiXuXtXcXa.  o y o U kXiXyXiXkXcXcXcXtXyXyXxX_.3 8 U N 6 6 6 ~ J `.cXjXjXuXvXQ 2 ~.) + T.ZX@ <XkXkXkXkX",
"VXVXVXVXVXSXVXVXVXVXVXVXSXmXmXmXFXE ; : e.i * hXBXMXVX1XI z [.mXbXbXmXp.B ) ( !.~.' ~ ~ !._ nXyXuXxX4X7 PXKXAX/.Z CXI DXSXbXkXkX",
"KXKXKXKXKXKXKXKXKXKXKXKXKXKXKXKXKX_ & o * j O XXKXKXFX4 . @   _.KXJXJXR ~.dXfXdXdX' < X @   W lXyXcX[./.PXfXgX/.Y ZXB I 1XvXkXkX",
"mXmXmXMXmXmXmXnXmXmXnXmXMXmXmXMXDXp.  * . y ; p.GX2X6 = e.x y @ }.bXbXI ~. X' ( ( J R _ _ sX3 W cXvXs.J ^.^.^.J I ZXP < Z lXkXjX",
"zXyXjXjXzXtXjXjXuXyXjXuXzXtXyXtXcXA.. % = q r W vXU 2 O j j v y   E vXp.G !.!. XsX XT.KXZXhXCX4 :XVX`., ) ) ( 6 _ ZXP sXR 4XjXyX",
"kXkXkXkXkXjXkXkXjXlXjXlXkXkXkXkXcX[.. * q t r 5 rX/ PXR.o x k k O O 7X].~ ~..XdX!.< . P 7 + sXT.a.MX7X@ # H F    XZXB  X^ 7XlXlX",
"kXkXkXjXjXlXjXkXjXjXjXjXkXkXkXkXjXlXZ.% r . r ; Z./ gXAXJ y x x : . U ,X7 2 J N O ' 2 7 4 R F !.! cXkXU P O   P ZXCXB T.Y NXGXFX",
"jXjXyXyXjXyXjXkXlXkXjXjXkXkXkXkXjXlXzX* % * c y Z._ gXgX~.% x x : & . Z rX` I [.` ~.5 4 Y P _ + [.vX8XZ CXCXhXPXLXfX9 T.Y <XlXjX",
"BXVXMXBXBXvXlXkXjXkXjXkXjXkXkXjXjXjXvXW   r v o `.U ) ~.~.* x x : & t o ` U =XSX=X# W U / @ !.8 :XxXtX9 @ _ !.!._ 9   T.Y :XlXjX",
"vXnXbX[.Z.U oXxXjXjXjXjXkXkXkXjXjXjXjXtXW     4 pXc , D ) * j x r & i * X   Z lXjXrXvX_.@ I !./ <XlX7X4 1   , X   M n T.Y :XjXjX",
"jX,Xp 5 O E ,XxXkXjXlXlXkXkXlXzXcXMXvXxXvX].a.NXuX@.    S 4 j x i $ u o s j 5 rXlXkXxX7X4 P / T MXlXhXe.z m ) J Y.Q.n T.^ =XlXjX",
"uXh V.V.U SXxXxXcXMXnXvXMXvXvXvX%Xn.G.tXBXDXBXnXSX8Xq o O O j x v @ . O i & 5 MXmXmXMXFX_ 2 I NXSXvXbXv F U.P.W.).I., ^ Y :XlXjX",
"Z.y J.% `.VXkXuXyXjXjXjXjXjXjXjX8.$.$.,.k.$XiXlXlXvXa.$ = r x j j j : > X . X =XlXtXyXjX,X` 1XxXyXyXcX7 X N m V m + + ^ Y <XlXjX",
"@ b V.; E a.a.uXjXjXjXkXkXkXjXMXb.*.-.=.*.-.4.0.j.B.9X* u c x x j j v j j i $ a.vX8XkXjXxXvXlXjXuXuXtXa n N , + , m < B Z jXjXtX",
"* b > r ; % a.xXjXkXkXkXjXkXkXlX%X*.-.*.:.*.*.*.*.&.w.s % u u i x x k x j i & W vXjXjXjXjXjXyXjXyXxXm.0 C M < + P.I.3   a.cXxXxX",
"O * z @ X E VXuXjXkXkXkXkXjXkXjXkX8.*.*.*.*.*.:.*.*.=...o t u t t i i i u i & E vXjXjXuXjXkXjXjXjXjXbXQ V I.- - L.E.1 [ 1.7.x.F.",
"@ `.vX!   . ].uXjXjXkXkXjXkXkXjXcXB.<.$.=.*.*.*.*.*.*.3.0 o t t u u t q & &   ! lXiXuXjXjXjXuXuXkXyXMXZ.1 V - w K.E.1 &.=.*.$.*.",
"oXvXvXVX].5 a.uXuXkXkXkXkXkXkXjXjXzX6Xr.*.*.*.*.*.*.*.=.$.-   O O O     . * T rXnXcXcXvXcXlXlXyXjXlX3X[.    0 0 + , o $.:.=.=.=.",
",.6.x.$XvXvXvXuXjXjXjXkXkXkXkXkXlXuXh.N.;.*.*.=.=.*.*.*.=.*.e 0 0 0 d.X...6.*X&XOXB.N.B.F.&X6XxXlXcXm.0.U @ s.e + # $ $.=.*.*.:.",
"&XB.l.>.6.N.5XxXkXjXjXkXkXkXkXxX3XpX-X6.1.*.=.*.*.*.*.*.*.=.3.3.=.=.M.&X=.*.$.$.*.$.$.$.$.*.;.0.+XxX6X%.l.zXMXz.$   [ *.{ -.*.*.",
"lXnXvXpX0.&.<.l.3XlXlXjXkXkXjXcX$X%.&XN.$.:.*.*.=.*.*.*.*.*.*.*.*.:.$.F.m.$.:.*.*.-.:.=.*.*.*.*.$.0.8XOX$.B.mXB.&.{ =.=.] s.u.q.",
"lXyXyXxXuX9.$.$.%.j.3XcXlXjXjXkXiX>.-.l.c.-.*.=.*.*.*.*.*.*.*.*.*.*.*.;.-Xj.$.*.$.*.*.*.*.:.*.=.-.*.9.4X;.;.8X3X$.=.$.=.*.s..X}.",
"+XcXjXyXxX8X7.$.*.$.%.b.8XcXjXyXvXB.*.$.9.N.0.$.*.*.*.*.=.*.*.*.*.*.*.*.<.-X%Xj.f.j.h.$.*.*.*.*.*.*.*.F.<.$.b.nX6.*.:.$.*.5.}.{.",
"$.m.kXxXyXkXiXh.$.*.*.$.1.F.zXcXjXtX4.*.*.1.M.m.4.*.*.=.*.*.*.*.*.*.*.*.*.%.M.@XF.f.0.y.,.*.*.*.*.*.*.m.6.*.,.iX5Xb.;.$.*.*.t.'.",
":.*.0.3XvXkXtXxX+X0.$.*.*.$.g.8XkXxXF.$.*.*.$.<.9.:.*.*.*.=.=.*.*.$.=.=.=.$.$.*.$.*.*.,.g.1.*.=.*.*.*.b.F.$.$.0.tXBXN.$.&.:.$. .",
"*.*.*.%.v.8XxXkXxXxX#X7.$.:.$.5.;XcXuX9.$.-.*.*.*.=.*.*. .+.} :.$.d d | { -.=.=.*.:.*.*.2.4.=.*.*.*.*.:.m.h.*.$.<.N.yX .u &.-.*.",
"*.*.-.*.*.<.N.8XcXcXcXjXx.$.*.*.2.$XvX$X-.:.*.*.*.*.*.=.2.E A e *.o.G S l f O.| &.=.*.*.*.$.*.*.*.*.*.*.*.4.9.*.$.$.N.OXq u.*.*.",
"*.*.*.=.-.$.$.2.l.+X8XxXBX+X2.*.*.4.8XvXm.$.*.*.*.*.*.*.=.} r 1 [ ;.I F D S S D a d | &.=.=.*.*.*.*.*.*.:.*.6.6.$.:.$.&XW {.s.q.",
"&.@.} =.*.*.:.*.$.$.<.0.j.F.@X<.$.$.N.vXkXj.&.*.:.*.=.*.-.=.&.s F &.g S I D D P D D I a O.| &.*.=.*.*.*.*.*.*.1.*.*.*.0.,X}.{.XX",
"&.~ ( @.2.3.*.*.:.*.*.*.*.$.4.M.8.*.>.3XvXkXx.-.&. .&.$.:.*.=.-.g f &.| }  .a S D D D G D P a O. .&.=.=.*.*.*.*.=.*.:.$.B.1X_.{.",
"&.o.f 7 6 e { =.*.*.*.*.:.:.*.;.m.0.$.6.+XpXnX;Xr.q 8 r e [ $.=.=.+.g O.O.] &.a G G S D D S S S S g { | $.*.*.*.*.*.*.=.X.XX|.{.",
"u &.*...q 3 : ] 2.$.*.*.=.*.*.*.;.b.9.$.$.<.G.uXcXa.< 6 3 3 O.*.*.*.+.S G H d  .f f Z D S D D D F O.a D f O. .$.=.=.*.*.{ '.XX'.",
"2 = q q e s * f =Xk.;.*.*.*.*.*.=.$.b.7.*.*.$.<.f.+XI 2 2 7 S O.=.*.=.o.I F d -.{ ] ] O.l G I G f g S D G H I a ] { $.=.*.s.{.{.",
"N S A A A 5 = a XXXX].#.*.=.*.*.*.=.-.j.6.$.*.*.$.;.s.P h F D S O.=.*.*.} } =.] I S P f O.l G F g I P D P D D S I f f | $.>.A.}.",
"} | ] +.f 6 5 7 F F S H s  .=.=.$.*.*.-.0.1.*.*.:.*.7.Z.N S D D F +.-.$.*.3.+.S D D D S l +.f d f S D D D D D P D Z z 6 s q.z.'.",
"=.3.*.=.*.q 4 > 6 K H N A D O.&.*.*.*.$.:.4.=.*.*.=.$.u._.7 D D D S O.%.=.o.F F P F D D D Z | ] S D D D D D D D H F l 6 8 {.'.}.",
"&.| ] d d | 5 4 6 A A A F K A p | *.*.*.:.*.:.*.*.:.=.[ `.p.F P D P K g | z D D P D D D D F P D D P D D D D D D F D U 5 4 {.XXXX"
};
