/* XPM */
static char *dfb5f25d134d47c8b1ae84c11a698453SB7cv4Be9lxOba4h[] = {
/* columns rows colors chars-per-pixel */
"64 64 241 2 ",
"   c #0C0A0D",
".  c #05070B",
"X  c #140C0D",
"o  c #18120F",
"O  c #0B0D11",
"+  c #120E11",
"@  c #051214",
"#  c #0B1419",
"$  c #0A1A1B",
"%  c #091617",
"&  c #151214",
"*  c #1B1414",
"=  c #15151A",
"-  c #1B151B",
";  c #1C1B1B",
":  c #171919",
">  c #0F100F",
",  c #221D1B",
"<  c #261917",
"1  c #2C091A",
"2  c #1B211F",
"3  c #2A221B",
"4  c #34271C",
"5  c #0B1E22",
"6  c #1D1D22",
"7  c #151B21",
"8  c #251B23",
"9  c #351827",
"0  c #3B1F30",
"q  c #0D252A",
"w  c #0C2327",
"e  c #1C2224",
"r  c #16252B",
"t  c #0E2931",
"y  c #122C32",
"u  c #1C2A34",
"i  c #15343B",
"p  c #163439",
"a  c #0F323A",
"s  c #242325",
"d  c #23252C",
"f  c #2B252C",
"g  c #292829",
"h  c #342A23",
"j  c #3A2D22",
"k  c #342A2A",
"l  c #3D332B",
"z  c #3B3427",
"x  c #2A2C34",
"c  c #262933",
"v  c #382B35",
"b  c #2B333A",
"n  c #373439",
"m  c #2C3128",
"M  c #47091C",
"N  c #422B1F",
"B  c #4C0B22",
"V  c #570E29",
"C  c #48162A",
"Z  c #59112D",
"A  c #4D1A31",
"S  c #5B1632",
"D  c #61112F",
"F  c #6C1C3C",
"G  c #661836",
"H  c #721C3D",
"J  c #73183B",
"K  c #462E23",
"L  c #43342A",
"P  c #4C352B",
"I  c #433A2D",
"U  c #463627",
"Y  c #543A2B",
"T  c #482534",
"R  c #463B32",
"E  c #483938",
"W  c #533B39",
"Q  c #54283C",
"!  c #64233D",
"~  c #46412C",
"^  c #4C4337",
"/  c #554234",
"(  c #53443B",
")  c #5D4A3C",
"_  c #584639",
"`  c #4E4836",
"'  c #624B3B",
"]  c #66543D",
"[  c #173942",
"{  c #193C44",
"}  c #183B44",
"|  c #2A3642",
" . c #383A42",
".. c #3A2E43",
"X. c #751E41",
"o. c #473945",
"O. c #543B43",
"+. c #563A47",
"@. c #523F50",
"#. c #732243",
"$. c #7B2245",
"%. c #7C264A",
"&. c #77294C",
"*. c #7D2E53",
"=. c #7C3657",
"-. c #662B43",
";. c #1C434C",
":. c #1C444B",
">. c #1D4651",
",. c #1E4953",
"<. c #36434C",
"1. c #214C55",
"2. c #224E59",
"3. c #23535B",
"4. c #265359",
"5. c #34595D",
"6. c #33474F",
"7. c #265963",
"8. c #3A5C61",
"9. c #37686C",
"0. c #4B4548",
"q. c #5C4C43",
"w. c #5B414A",
"e. c #574846",
"r. c #5B5349",
"t. c #464C55",
"y. c #594755",
"u. c #47545C",
"i. c #5B5457",
"p. c #634D42",
"a. c #654D46",
"s. c #6A5B4B",
"d. c #675748",
"f. c #674859",
"g. c #6C5D54",
"h. c #675756",
"j. c #725A57",
"k. c #735652",
"l. c #6B624D",
"z. c #6C6358",
"x. c #73645A",
"c. c #7B6B5C",
"v. c #766757",
"b. c #786E58",
"n. c #495A63",
"m. c #565B66",
"M. c #544D63",
"N. c #6D4E64",
"B. c #6D5465",
"V. c #695667",
"C. c #745569",
"Z. c #735A6D",
"A. c #765867",
"S. c #765C71",
"D. c #7A5D73",
"F. c #7B4B63",
"G. c #47656A",
"H. c #54646B",
"J. c #527276",
"K. c #7B6C63",
"L. c #766C67",
"P. c #7A7466",
"I. c #746273",
"U. c #7C6176",
"Y. c #7D6479",
"T. c #78697C",
"R. c #6F6C6F",
"E. c #81264C",
"W. c #91345D",
"Q. c #843257",
"!. c #953963",
"~. c #8A506E",
"^. c #826E62",
"/. c #877769",
"(. c #83657B",
"). c #85697E",
"_. c #88677D",
"`. c #887B74",
"'. c #907E72",
"]. c #80765D",
"[. c #62817E",
"{. c #8C8278",
"}. c #918474",
"|. c #93847B",
" X c #958A7D",
".X c #97897B",
"XX c #978D77",
"oX c #7A7585",
"OX c #6C7384",
"+X c #597B8A",
"@X c #866B81",
"#X c #8A6D83",
"$X c #8C6F88",
"%X c #946883",
"&X c #8D7187",
"*X c #8E7289",
"=X c #8E7389",
"-X c #867385",
";X c #917187",
":X c #91748B",
">X c #92768D",
",X c #95768D",
"<X c #92748B",
"1X c #95788E",
"2X c #947790",
"3X c #957A91",
"4X c #9B7B93",
"5X c #A07F97",
"6X c #3C828B",
"7X c #5A8C91",
"8X c #688986",
"9X c #7A9C97",
"0X c #738C91",
"qX c #75A5A9",
"wX c #968C84",
"eX c #998C83",
"rX c #958D89",
"tX c #9C938B",
"yX c #999186",
"uX c #9C8197",
"iX c #999796",
"pX c #878D94",
"aX c #A3849B",
"sX c #A6889E",
"dX c #A19B96",
"fX c #A0968E",
"gX c #8AA39F",
"hX c #A5A29E",
"jX c #8AABA5",
"kX c #8CADAA",
"lX c #85A7A7",
"zX c #8FB1AC",
"xX c #91B3AE",
"cX c #93B5B2",
"vX c #98BBB7",
"bX c #8EB0AF",
"nX c #A4A5A3",
"mX c #8D9BA1",
"MX c #9BC3BD",
"NX c #A2C4BF",
"BX c #9FC6C1",
/* pixels */
"T E Q E O.S.@X@X@X@X@X$X$X$X&X=X=X=X&X&X&X;X;X;X#X;X;X;X;X&X_.R.n. .c <.6.<.b c 6 7 o.Y.@X#X&X;X;X;X=X=X=X=X=X=X=X=X*X*X*X*X$X-X",
"E O.O.O.O.I.@X@X@X$X=X*X=X*X:X=X;X>X:X>X:X:X;X;X;X<X;X;X;X,XR.n.t.| | <.<.<.| c ; & f V.(.>X:X,X:X>X>X>X:X=X=X:X>X>X2X=X=X>X*X$X",
"O.E O.O.+.U.-X#X$X$X*X*X:X:X>X>X,X;X;X,X1X;X,X,X,X;X<X<X,XT.n.6. . .6.| c e : : = + 8 y.V.I.).1X1X:X1X1X1X:X1X:X>X>X3X>X>X2X*X2X",
"O.O.O.+.+.S.$X#X$X$X*X>X:X:X>X>X,X1X1X1X1X1X1X,X,X,X,X,X).0.<.n g  .<.b r c : + &   * x b |  .V.1X1X1X1X1X1X:X>X1X2X2X2X2X2X2X*X",
"Q O.+.p.+.D.*X$X=X=X:X:X>X,X>X>X,X,X,X,X,X,X,X,X;X,X&X&Xe.n k 3 g <.6.d x d : O +   + & d b | x h.4X3X1X1X>X>X>X3X2X2X2X2X2X*X2X",
"E O.+.+.w.A.=X$X=X:X:X>X>X>X,X>X,X,X1X,X,X,X,X,X,X,X=XV.<.m 3 , d <.<.d s e , = & * + & ; 6 c x n ).3X,X,X1X1X1X2X2X3X2X2X2X2X2X",
"O.O.O.+.w.Z.:X=X=X<X:X,X1X:X>X1X1X,X,X,X,X1X,X,X,X;XI.0.n s 3 ; s b  .g m v h v n n ; + + + 7 d s w.2X>X1X1X>X1X2X2X2X2X2X2X>X2X",
"W O.+.+.w.A.:X=X*X<X:X>X>X>X1X1X1X1X,X4X,X,X,X,X%XM.o.b n 3 > : 3 g x x E E ( r.R.P.i.e + + O e e x Y.4X1X1X1X1X2X3X2X2X2X2X2X2X",
"o.-.-.&.-.Z.>X=X>X<X>X>X1X1X>X1X1X1X1X,X1X,X,X).y. .b d & & : * 3 ; 3 m 0.q.g.`.iXnXwXi.:   + = e 8 i.1X1X1X1X,X3X2X3X2X2X2X2X2X",
"o.8.M.X.&.B.>X=X=X>X>X>X1X1X1X1X,X1X,X1X,X1X1X&X .m b b e 3 * ; s < < g y.z.P.pXmXnXyX{.n .   : e 6 o.#X1X,X1X1X3X3X2X3X2X2X2X2X",
" .| 9.@.#.N.=X=X>X>X1X1X1X1X1X1X1X4X1X,X4X1X,X(. .b r x g g : , < < h h i.P.wXtXhXiXtXXXz.:   7 u - g Z.3X,X1X1X3X2X2X2X2X2X2X2X",
" .} n...F =.=X>X>X>X>X1X1X1X1X>X1X1X1X4X,X,X,XV.c x 2 d e e 3 ; ; < j h h.R.{.rXiXyXyXyX/.k   e u 8 s y.:X>X,X1X3X3X2X2X2X2X2X2X",
" .G.5.8 G =.>X>X:X1X1X1X>X1X>X1X1X1X1X1X3X,X2Xi.b n e : : : s , * 4 l j z.`.-XrXwXwXwXwX{.`   7 d u s o.(.1X1X1X3X3X2X2X2X2X2X2X",
"x | r 7 S =.=X1X,X:X1X1X1X1X1X1X4X1X1X4X3X3X#XE b <.b s e : ; * < h k E L.`.rXtXrXwX X XXXi.& = e d d E Z.=X1X1X3X2X2X2X2X2X2X2X",
"0 # # - Z =.=X>X>X1X1X1X1X1X1X1X1X1X1X1X1X4XI.s 2 x n x g g ; < , h I h.rXrXrXiXnXiX X X{.z.e > 7 d d n Z.=X2X3X2X3X2X2X2X2X2X2X",
"@.1 # 1 D =.=X>X>X1X1X1X1X1X1X1X4X3X1X1X,X4XA.< : ; e g x 3 3 3 h ^ h.P.rXrXiXiXnXdXtX X{.b.g & = c d o.y.).2X3X3X3X2X2X2X2X2X2X",
"+.A 1 1 J &.$X2X1X1X1X1X>X1X1X1X4X1X1X1X1X4Xf.* 2 ; & : h , , ; k E d.x./.|.wXtXiXhXiXyX}.K.g + & 8 u E V.&X1X3X3X3X3X3X3X2X2X2X",
"-.X.S S X.E.$X2X>X>X>X1X1X1X1X4X1X1XuX1X4X4Xy.: e : + ; ` l m m h h l q.v.^./.K.P.wXyXwX XP.m + & 8 & v ).1X1X3X3X3X3X3X3X2X3X2X",
"X.#.&.*.W.!.%X3X1X1X1X1X1X1X1X1X4X4X1X1X1XuXe.X 2 3   3 z.` 0.l._ I U / k.c.v.p.R n y.R.`./.v + + * & v -X3X3X3X3X3X3X3X3X2X3X>X",
"X.&.*.Q.W.!.;X3X1X1X,X1X1X1X1X1X1X1X1X4X1XuXy.X ; ; . I l.r.P.P.c.) Y ' d.j.a._ P l l 0.R.P.I   & X o T =X1XuX1X3X3X3X3X2X3X3X3X",
"%.E.*.Q.W.!.%X3X,X1X1X1X1X4X1X1X3X3X3X3X1XuXI.* , : . ` l.b.v.' / / Y _ d.s.' Y _ l.x.i.r.x.E . X X + y.4X3X3XuX3X2X3X3X2X3X2X2X",
"%.E.&.E.W.W.#X3X,X,X1X1X1X1X1X1X3X3X3X3X1XuX>X9 : o o d.b.] 4 ,   < P _ b.c./ Y ] c.}.P.e.g.E . X X + y.uX3X3X3X3X3X3X3X3X2X3X>X",
"%.E.*.Q.W.!.%X>X,X,X1X,X1X1X,X,X3X3X4X4X3X3XuXe.> > 3 b.l.~ p.g.i.( P ' }.{._ P 4 < U c.j.h.e.. + X & y.3X3X4X3X3X3X3X3X3X3X2X2X",
"&.E.%.E.W.!.%X3X4X4X4X4X4X4X4X4X4X4X4X4X4X4XaXh.o . z }.].].s.' ] _ ' l.yXyXa.P E x < 4 l.P.q.  + + - N.uXuXuX4X4XuX4X4X3X3X3X3X",
"#.$.#.%.E.E.%XaX5XuXaX4XaXaXaXsXaXaXaXsXsXsXsXi.=   ( }.}.}./.] Y ' c.].fXyX^.' ' x.L.( P v.g.& &   v =XsXsXsXsXsXsXsXsXaXuXaXuX",
"F #.#.#.$.J _.1X:X1X1X1X1X1X1X1X,X3X1X4X,XrX4XV.;   s.XX.X.X.X.X`.'.'.'.dXfX/.K.' Y ' l.l.v.v.* + & i.>X1X1X1X1X3X3X3X=X>X>X2X2X",
"G $.F F %.J (.3X1X1X1X3X1X3X3X1X4X1X3X3XuX1XuXI.g > z.yX.XeX4XeXiXeX'..XhXfX/..X;X}.'.eX.X}.^.; > 6 I.uXuX1X3XuX3X2X3X3X3X3X3X3X",
"F #.&.#.$.$.~.uX=X).#X).#X_.#X#X_.#X_.#X&X).).I.g & b.yXeX'.'.'.rX'.'..XhXfX.X.XfXeXfXfXeXXX^.< & 6 i.-X).T.).).oX).@X).@XY.@XY.",
"F $.*.*.$.E.~.uX).f.A.C.C.C.A.C.A.A.A.A.A.Z.I.V.g & c. X{./.^./.k.a./.}.fXtX^.^.fXeXeXtXeXwX^.& = g 0.Z.B.A.B.B.B.B.B.B.N.B.N.B.",
"Z #.&.*.X.X.~.3X#X(.#X_.#X_._._._._.).).&X;X:XR.k * b./.^.v.^.a./ }.XX}..X'.'.a.j.'.'.eXeXwXL.+ + f y.Y.@X).).)._.)._.#X@X).(.@X",
"G #.#.&.E.J ~.2X;X_.:X;X;X;X;X;X:X;X;X;X;X;X>X>XZ.I z.b.k.d.' P ] }.'.'./.^.tX^.Y ^./.'.|.rXg.+ + d o.I.&X&X&X&X&X&X&X&X&X&X$X$X",
"G #.G G E.X.F.2X;X_.<X:X,X:X:X:X,X;X:X;X;X1X>X>XuXz.s.g.a.W K Y ] / W d.a.k.c.k.Y / j.^./.`.r.X - ..V.@X;X&X&X&X&X;X&X=X&X;X&X&X",
"A D Z S F G f.3X$X#X<X<X<X<X<X<X<X<X<X;X:X>X>X&XT.h.l.r.' P K ( k./ U R W K N / / Y p.k.j.K.e.< f y.@X$X&X=X&X&X&X:X;X;X&X;X=X=X",
"S 1 1 1 9 C =.,X$X%X%X<X<X2X%X<X;X;X:X:X:X=X1X@X0.n l.d.( K I r.g.p.W P P K E p.( K Y a.a.g.e.j w.Y.&X$X&X&X&X&X&X&X&X&X;X=X;X=X",
"X.S 9 1 C X.~.;X*X%X<X$X<X<X,X<X<X<X:X:X:X:X:X#Xo.6 r.d./ K ~ r.z.z.r.( ( E q.d.( K P _ q.s.q.y.Y.@X&X#X&X=X&X&X&X$X;X;X&X=X=X=X",
"#.$.X.X.E.X.~.1X$X@X<X<X$X<X;X,X<X<X:X:X:X>X:X#XN.v q.d.' K L e.h.h.h.a.q.h.x.V.e.L K ( q.h.q.@.S.Y.&X&X&X&X;X&X$X$X&X&X&X$X=X$X",
"X.X.F F X.X.~.:X*X@X%X2X<X;X<X;X<X<X<X;X<X<X;X%Xf...E s.] Y j < ^ ( W ( O.O.w.w.( l K / e.d.O.@.B.@X$X;X$X&X&X&X$X$X&X&X&X&X$X&X",
"X.X.G S F E.W.:X*X#X<X<X<X<X;X<X;X<X;X<X;X:X;X#X@.8 E l.d._ P < 0.z.z.r.e.W W R < 4 P / e.e.v N.#X#X$X$X&X&X&X&X;X&X&X&X&X=X=X&X",
"F F G Z #.$.Q.=X$X@X%X*X*X<X;X;X<X;X;X,X<X<X$X;Xf.- f d.] ] / q.3 ` L.P.P.R.h.m 1 P ) ( p.E 8 +.Y.@X#X;X&X&X&X&X#X;X&X&X&X&X$X&X",
"F F F S $.%.Q.*X2X#X$X2X;X<X;X:X<X<X<X<X<X;X$X#X#X@.= ^ s.] ' l.e.j R R ^ W h 9 W W ' ( q., X v (.#X#X$X&X&X&X&X&X&X&X;X$X$X$X$X",
"F G G G H $.E.;X:X).=X:X;X=X;X:X%X<X<X<X;X;X#X#X;X_.B.h.d.] ] l.j.j.q.e.e.r.e.f.' ' p.) O.O 6 (.#X@X#X#X$X$X$X#X#X&X&X-X&X&X#X#X",
"G J D D H $.&.&X=X_.$X;X;X$X$X;X%X*X$X;X*X$X#X%X).).D.y.` d.] l.x.I.A.j.j.A.N.h.p.d.) ( 6 @.N.@X@X@X%X@X#X#X#X@X&X#X).&X#X#X#X#X",
"D G D V G H %.).=X(.#X$X$X;X$X;X$X$X$X;X#X#X@X@X)._._.<.m l.] l.v.k.f.j.j.F.f.d.d.p.( v . t.%XY.@X(.@X@X#X@X%X@X).&X).&X@X@X@X@X",
"D D D B V H &.).=X(._.#X$X#X#X$X$X$X$X$X#X%X@X@X)._.%X:.& d.l.l.l.a.) +.w.W g.s.d.p.) s . | oXY._.(.(.@X#X@X@X@X).#X).@X@X@X@X@X",
"D D Z M B F H (.&X(.).#X#X#X#X#X#X#X#X@X#X@X@X(.P.T.8Xp o ] ] [.b.l.q.) e.q.k.j.s.p.q.; . a 6X7XT.(.(.@X@X@X@X@X@X@X@X@X@X@X(.@X",
"S D V M T G H (.@X(.).@X@X#X@X#X@X#X#X%X@X(.(.@X9XzX7Xt o ] ] l.K.K.x.h.h.k.v.j.s.( ( * . w J.qXqX+XOXD.@X%X@XoX(.(.@X@X).@X@XY.",
"S Z B B W -.H U.@XY.(.#X@X(.#X@X@X@X@X@X(.(.pXvXMXzX[.w @ ~ ] [./.P.K.K.K.L.K.v.r.^ ( * . w 3.qXvXvXqX7X+XoXD.@X(.@X@XD.(.(.D.@X",
"S Z B C w.-.G U.@XD.(.@X@X(.(.).@X(.(.@XpXcXMXvXMXqX7.w . ~ ] l.c.K.K.P.P.^.c.h.R ^ ^ * @ w >.7XbXcXMXBXvXqX0XoXD.D.@XD.(.(.oXD.",
"V V B A @.+.F D.@XD.D.).).(.).(.R.-XgXvXNXMXzXzXjX9X3.t @ 4 ` ` d.s.h.x.x.g.h.^ I / R o @ q { 9.bXbXcXvXvXNXNXNXbXoXoXD.@XoXD.(.",
"C B B A f.@.Q F.@XD.D.(.(.(.(.Y.yXMXMXMXcXxXMXjXjX9X:.y @ 3 ~ ~ ^ ( r.d.( ( E I R R I < $ t [ 7.lXbXbXcXcXcXvXvXNXNX-XD.D.D.D.D.",
"Z M M Q @.y.o.V.oXD.D.(.Y.(.Y.mXMXMXxXxXxXzXxXjX[.[.:.a % o ~ ~ ~ l L L l l z P R R l * % t y ,.8XbXbXbXbXzXbXcXcXvXvX$XD.D.D.D.",
"C M M C @.@.A =.Y.Z.D.U.Y.Z.pXMXzXzXzXzXzXgX[.G.4.4.:.a $ > 4 ~ ~ ~ I l l L L I R I j * $ a a ;.7.J.pXkXzXkXkXkXbXkXvXbXOXD.D.D.",
"C M B B n  .v N.Y.Z.S.Y.I.oXxXxXjXzXzXjX[.5.:.1.3.3.:.w w % 3 ~ ~ ~ ^ ` P I U I I I j * % p { [ 7.,.,.9.0XlXzXkXlXkXkXvX*XS.S.S.",
"C B V C x x 0 f.I.Z.Z.D.D.pXxXjXzXqX[.8.1.1.7.4.3.3.p y w % o m ~ R I I I z U I I I j o $ y ;.{ ,.7.3.>.>.8.+X9XkXlXkXbXmXS.Z.S.",
"C B V A x c 0 =.I.Z.Z.D.T.kXzXjX[.5.:.:.4.4.4.4.3.3.{ y w 5 o 3 ~ ~ z U j j L R I l h o $ a { { ,.7.7.2.,.,.;.2.J.jXlXlXbXoXV.S.",
"h B B 9 x v c @.I.B.C.Z.0XzX9X8.:.,.3.4.4.4.1.1.3.3.:.w y w : 3 z z z j j j U I v l h   w p { { { 7.2.,.1.2.,.,.>.6.0XlXlX0XN.Z.",
"c A Z 0 c c c @.S.V.B.S.mX9X3.;.4.1.1.1.4.1.1.1.3.3.1.{ i y % o m z z 4 4 4 z ~ z ^ r @ q p { i } 7.7.{ 2.>.>.2.4.>.{ +XlXmXV.B.",
"c A Z 9 8 c 8 @.S.V.V.I.9X5.,.>.1.,.,.:.1.1.1.1.2.3.1.{ y q % @ : m 4 3 4 4 4 z b q $ @ y i { i } { 7.2.{ 2.2.2.1.1.{ >.8X9XT.N.",
"c 1 1 - f f 8 o.Z.V.N.oXG.:.,.;.:.,.,.>.1.:.1.1.:.{ p { { q @ . @ > : : o : 2 5 $ $ % @ y i i i } 2.2.2.2.2.2.>.1.1.{ { n.9XoXS.",
"u 7 O + c c d ..V.V.S.T.:.,.>.{ ,.,.:.,.1.:.:.:.:.p q q q i w . . @ @ @ $ $ $ $ $ $ $ r a i :.:.>.,.7.2.2.{ 2.>.>.>.} 1.{ J.0XZ.",
"d = # 7 c | u ..V.V.C.H.i ,.:.{ :.:.:.:.:.:.:.:.:.p i y 2 w t w % . @ @ @ @ @ $ $ p <.b y } { 1.} } } >.2.{ 2.>.>.>.{ >.} :.0XV.",
"7 # 7 u | | r ..V.V.V.G.a :.:.i :.:.:.:.:.:.:.:.{ p i y y w 5 b <.b e 2 2 r p b t.m.u.u p { { { >.t t { { >.2.2.;.1.{ { ;.[ +XR.",
"7 # r u | | 7 c y.@.m.G.t { { i :.{ :.:.:.:.:.:.i p p y w q 5 y u.u.t.r.u.r.n.H.H.H.u.y i [ } [ u a >.} 1.{ { 1.{ 1.{ } { { [.H.",
"r u u | | | | b @.+.h.9.t :.[ [ :.:.:.:.:.{ i ,.i p p y w q q w 6.H.G.m.G.H.H.J.J.J.<.y p [ y q t } 2.} { { >.1.{ >.{ { i { [.R."
};
