/* XPM */
static char *_4932a89f2df45ecbf42a865783fb4f7ABS07p3qnq1GzANo[] = {
/* columns rows colors chars-per-pixel */
"64 64 126 2 ",
"   c #23130E",
".  c #29150F",
"X  c #261410",
"o  c #2A1610",
"O  c #2F1913",
"+  c #351E14",
"@  c #391F16",
"#  c #351919",
"$  c #3B1B1B",
"%  c #3B2116",
"&  c #3D2319",
"*  c #431E1E",
"=  c #44221E",
"-  c #452A1C",
";  c #51231F",
":  c #442420",
">  c #492421",
",  c #562621",
"<  c #592622",
"1  c #542922",
"2  c #5B2922",
"3  c #543127",
"4  c #553128",
"5  c #59352A",
"6  c #632D26",
"7  c #682F27",
"8  c #663026",
"9  c #6C3228",
"0  c #70342A",
"q  c #77392C",
"w  c #7D3D2E",
"e  c #803F2F",
"r  c #813F30",
"t  c #81402F",
"y  c #824030",
"u  c #854231",
"i  c #864231",
"p  c #864331",
"a  c #874331",
"s  c #874332",
"d  c #834431",
"f  c #874431",
"g  c #874732",
"h  c #854231",
"j  c #894532",
"k  c #894533",
"l  c #8A4533",
"z  c #8B4533",
"x  c #8A4633",
"c  c #8B4633",
"v  c #8C4633",
"b  c #8C4733",
"n  c #8B4633",
"m  c #8C4834",
"M  c #8D4834",
"N  c #8D4934",
"B  c #8C4935",
"V  c #8E4834",
"C  c #8E4935",
"Z  c #8F4935",
"A  c #8E4834",
"S  c #914B36",
"D  c #924B36",
"F  c #924C36",
"G  c #934C36",
"H  c #964F37",
"J  c #934C36",
"K  c #964F38",
"L  c #974F38",
"P  c #964F38",
"I  c #905237",
"U  c #925337",
"Y  c #945439",
"T  c #945339",
"R  c #985038",
"E  c #9A5239",
"W  c #99573B",
"Q  c #9A573B",
"!  c #9D573B",
"~  c #995339",
"^  c #9C583B",
"/  c #9D593C",
"(  c #9E593C",
")  c #9C583C",
"_  c #A05B3C",
"`  c #A05B3D",
"'  c #A15B3D",
"]  c #A55D3F",
"[  c #A65E3F",
"{  c #A75E3F",
"}  c #A65F3F",
"|  c #A75F3F",
" . c #A65F3F",
".. c #A7603F",
"X. c #A7603F",
"o. c #A65D40",
"O. c #AC5F41",
"+. c #A96041",
"@. c #AA6041",
"#. c #AE6142",
"$. c #AD6242",
"%. c #AE6242",
"&. c #AB6443",
"*. c #AB6543",
"=. c #AC6542",
"-. c #AC6443",
";. c #AC6543",
":. c #AB6342",
">. c #B06242",
",. c #B16A45",
"<. c #BC6E49",
"1. c #BC6F4A",
"2. c #BB6E49",
"3. c #B0734C",
"4. c #BD704B",
"5. c #BD704B",
"6. c #B67650",
"7. c #B77750",
"8. c #B77750",
"9. c #B87A52",
"0. c #BC7A53",
"q. c #BD7A53",
"w. c #BE7D56",
"e. c #C2754E",
"r. c #CE865B",
"t. c #CD865B",
/* pixels */
"% % % % % + % % % % % % + % % % % % % % %       . % % % % % % % % % % % % % % % % % % % % % % % % % % X + % % % % % % % % % % % ",
"] ] ] ' ] ] ] ] X.' ] ] ] ] X._ ] o.' *.6.3 X . 1 ( ] _ X.] ' ] X._ ] ] _ ] X._ ] ] ' X.X.' ] X._ =.3.- U ] ' ] X._ ] ] _ ] X._ ",
"G G F F S S S S F F F S G S S S Z F F K 5.0.3 O ; S S S G G F S F F F S G S Z S F F F F Z F F F F ~ *.& 8 Z J S F F F S G S Z S ",
"b x x x b b b b b b b b b b b g b b b b U 4.7.& 6 t b b z z z s b b b b b b x x m z z m x x x b b F X.& < a z s b b b b b b x x ",
"b b b b s b b b z b z b b b b b z z z b x R *.% ; b b b b b b b z s b b b b b b b b b z z p b m b F ] % 2 b b b b b b b b b b b ",
"b b b s b b b b b z b z b b a b z z m b x F +.% ; b z b b b b b z b b a t b p b m z p z z b b z z F X.% 2 t b s s b s b x b b b ",
"b b a b s z z m z b z b z s b b b a b b x F X.% 2 t b z b z z b z p w 9 7 9 a b m z b b m z m z z G X.% 2 b b b z z b s b b b b ",
"b b b b z z z z b b b z t 9 t s b b b b b G +.% 2 b b b t t a a y 9 9 e a y b b z z p b m z z z b F X.% 2 t b b z z b b s b b p ",
"m z z k z z z z b b z m p 9 t p k z z z z F ' % , w a y 9 9 7 8 9 w a z b b b z z z z m z m b p b F +.% 2 a b b z z z z z m b b ",
"k z m m z z k z b b z z p w 6 2 6 y z m p F +.+ $ 6 7 9 r y a y t 9 y z m z b p z m b b z m b b b F X.% < y b b b p a b z z z p ",
"z m z z B s 9 y y b b y 6 2 $ $ $ 6 p a 9 Z +.% & w y p z z m b z t 9 p z z b b z z b p z z b b b S X.% 2 a m b p 9 a b b b m z ",
"z z m z z z r 9 9 y r 2 $ # X X # 2 w 9 y m W % < s z m z z z z z p 9 p z p b b m m z z z p b b b S +.% , w p m y 9 a b p b m z ",
"m b b p z z z s w 6 4 * # X     X # 2 w y 2 * o 2 a z z b b p z m z p z z m b b b b z z m z z m a m W + # 2 6 w 9 y z z z z m z ",
"d a p p s s s y 2 $ $ # # X         $ 2 2 $     , r p p a a a a p d a a p p p p p y p p p p p y 6 2 = .   # $ 2 t p p p p p p p ",
"2 2 2 2 < 2 2 < $ # # # # # X       . # # X     $ , 2 2 2 2 2 2 2 2 2 2 2 2 2 2 2 2 2 2 2 2 2 , $ #         X $ , 2 2 2 2 2 2 2 ",
". . . o X O $ > > > * $ $ $ O X X   o + % + + + + & % % % % % % % & & o X . o % % % % % % % % % + + + + + + + % % % % % % % % % ",
"            O T X.| Z a 6 , $ # $ $ 6 / +.+.( d ( +.X.X.X.' +.X.] *.7.3 X   + U X.] +.o.] X.X.] o.X.X.] +.X.] X.X.] o.X.X.] X.X.",
"$ # $ $ # X o 8 b H >.%.y 2 $ $ < 6 y S F F x 0 Z F F F G F F F G R 4.0.5 = O 8 Z F F S F F F F F F G G F F F F F F F F F F F F ",
", < < < $ # o < a z D z 9 2 2 6 w a z z b p 9 y z z p b Z b b z z b G 1.t.7.& 2 a b b p b b m b b b z b m z z z b b b z s b b b ",
"2 2 2 2 , # o 2 a z z z w 9 a y 0 a z z b t 9 p m z z b b b p z b b b U 5.,.% 2 a b b b b b z z b b b z z z m m b b b p z b b b ",
"6 < < 2 < # o 2 a b j a 0 e b f y b z m y 9 t z z m z b m z z z b b b s R ] % 2 y b b a p z m m b b z z m z z z m z b b z z z m ",
"< < 6 6 < $ o 2 a j b j i b b v z m z z y 9 y z z p z m b z m p b b z z F X.% 2 p b a 9 9 y z z b b z a a z p z z z p b z z b b ",
"6 < 2 2 , $ o 2 a b j b b b f v m b z p 9 w 9 d b b z m b b b b m z z z F ] % 2 d z k a y 9 y z a z y 9 9 w 9 z z m z m z z b b ",
"6 < 2 2 < $ o 2 a j b j b j v v b b z w 9 y 9 p b m z z z p b m b z p z F +.% 2 p z z z z y 9 p z r 9 y t 9 w z b b z m z z p b ",
"< < < < < * . < e D r D v v v v b z a 9 y z d z m b p z p z z z b y 0 y S +.% 2 p m z b b y 9 y y 9 y z z y 9 y b p z z m m b b ",
"< 6 < 6 ; # . < r r G r v j v v b p z p z z z z b b m z b b m z z z y 9 z ' % 2 p z z m m z y 9 w 9 p z z Z y 0 p z p b z z p b ",
"2 2 < < < * . < r V V r v v j v z z m z z m b b p b z z m b z p m b b y 0 d + 2 p z b b b b p y 9 t b p z m p p z z z b b m z z ",
"2 2 < 6 ; * . < r G r G j v v v m m z z z z p b z b b m z z m b b b p z Z ( % < p z p b b b z y 9 a b b b b b m z m m b b z z m ",
"6 < < < < * . < r G V V v v v v b b z m b b m b z m b b b b m b b b b b F X.% 2 y z z b b b p 9 w z z z b p z z z z b b b z m z ",
"6 < 7 < ; *   # 7 r r r v v v v b b z z p b z m z z b d y a z z b p b b F +.% ; 6 a z m b m y 9 k z z m b b m z z p b b p z m z ",
"< < 6 < < *     * < 6 e r v e v y a a a p a y p p p w = = w a p y a p p Z ( + # $ 2 t a a w 8 w p p p p p p p y p p d a p p p p ",
"< 6 < < < < *   . O * ; 2 2 2 2 2 2 , 2 2 2 2 2 2 , $ X X $ , 2 2 2 2 2 2 , o   X # , 2 2 , $ , 2 2 2 2 2 2 2 2 2 2 2 2 2 2 , 2 ",
"8 9 9 9 8 9 6 : % + % % & + % % & % % % % & O . % % % + O % % % % % % % & % + + + + % % % % % & o . o o % % % % % & % % % % % % ",
"-.%.O.>.-.%.%.+.o.X.] +.( p ` +.] X.X.X.*.6.3 + U ] X.X.X.X.+.+.X.o.] ] X.] X.X.X.+.+.X.] +.*.9.4 X   + U ] X.X.X.] X.X.+.] X.+.",
"S S J S S S F F F F F z q b F F G G F G H 4.9.= 8 Z F F F F F F F S F S G G G G F F F F F F R 5.0.3 X X 8 Z F F F G G F G F F G ",
"z m s b m m z m b p y 9 w b z z z z b x b R =.% , a x x x x z z b b b b b z z z z m z z b b b G e.w.= o < a b b z z z b z b z z ",
"z z z z z m z z y 9 9 y z m b p z b b b b S ] % 2 p b b m z z m m z b b z b b b z m b p b b m Z 2.t.5 O 2 a z m m z z m b b p p ",
"z z z z z m p t 9 y a b z m b b b z b b b F ] % 2 p b b z z z p z z p b b z b b z m b b p b b z K 2.7.& 2 a z z z z m r p t 7 2 ",
"b b m b z y 9 9 w z b b z z b m z z b b b F +.% 2 p p z z m a 9 p z z m z z b b z z b m z z m z z R *.& , a b p z a r 6 2 2 $ $ ",
"s b b b y 9 t y 9 p z p p b b z z z p b b F X.% 2 p z z z z w 9 p z z z z a b b p b b z z m z z z F X.% 2 a b b s 9 6 : $ $ # # ",
"z z p t 9 y z p 9 y z z z m m z z m b b b F +.% 2 a b b p a 9 t m p z m b a a z z m z z b b b z b F X.& 2 a z p z r 6 2 2 $ $ $ ",
"z y 9 9 y m m z y 9 a z z z z z b b m z p F o.% , a b b z w 9 p b b z z b a 9 y z z z m m z b p b F ] % , a z b z z a a y 6 6 2 ",
"w 9 y p a b b b a a b b m m b p b z z z b F X.% 2 a b b p 0 y m z z m b b b t 0 y y z m z z b b b F ] % 2 p b b z z m m k k k s ",
"9 y Z z z b b b b b b b z z b b b p z m b Z W % < y b b z p z z m p b b b b b y 9 9 t b z z p b b F +.% 2 p b b z z z z z z z z ",
"p b x x z z m z z z b z b b b b b b z z w 6 = o < y b b b b b b z z z z m b x x p y 9 b b b b b b Z W @ 2 a b b z z b b z z m z ",
"p p p p a y p p p p p p a y a a y a b r 6 $ .   $ 2 y a a a y a p p p p p y y a p y y y y a a a a w > o , t a y p y a a d p p p ",
"2 2 2 2 2 2 2 2 2 2 < 2 < 2 2 2 < 2 2 2 > #       $ , < , 2 2 2 2 2 2 2 2 2 2 2 2 2 2 2 2 2 2 < 2 , # X $ , 2 < 2 2 2 2 2 2 2 , ",
". . . . . o X o o % % % + + % % % % % % % + + + + @ % % & % & % % % % & & O o . O % % % % % % & % % @ + @ % % & % % % % % & % & ",
"        X       & Y +.o./ 9 / +.o.+.X.] X.X.o.X.X.] X.X.] X.] X.X.] +.*.7.3 . . = W +.o.] X.X.] ] X.X.| +.X.' +.X.X.o.X.] X.X.] ",
"= = : $ # o     & 9 S S F y 9 m F F F F F F F F F G G F F F F F F F F R 5.7.% $ w F F F F F F F G G G G F F F F F F F F F F F F ",
"+.+.o.x 2 # X $ 2 y z z b p 9 y z z b b b b b z b b z z b b m p b b b p R *.& , p x p z b b m b b b z z m z b b b b b z b b z b ",
"F F R +.k $ o , y z B z b m y 9 a p b b b b p z b b b z m z z b b b b b F X.% 2 p x b b b b z z b b b z z z p b b b b p y a b b ",
"b b m R o.= o 2 p z z z b z y 9 y z z b b b z z b b z z p z z m b z z z F ] % 2 p b b b z z m m b b b p z z z m m z z p 9 9 r z ",
"b b z F o.1 o 2 p m z z p p 9 w b b m b b b m z b b z w 9 p z m p z z m F X.% 2 p b b b z z b p b b b b z m z m z z m p a y 9 w ",
"b z z z S / % 2 p z b p m z t 9 p m z z p z z z a z a 9 y z z z z p z m F X.% 2 p z b a a z z z a z z m z b b z z m b b m z a 9 ",
"b s z z S +.% , p m b a b y 9 y y b m m z z z s z z t 9 k m m z z b b b F o.% 2 p z z a 9 d m m z z z z m b p z b b m z z z z p ",
"z z z p F X.% 2 p b a 9 w 6 2 w 9 s z b z b b b Z p 9 y b b b b m z b b F X.% 2 p z z t 9 t z z m z z z b b b x b p m z z b b p ",
"m z z b F X.% 2 y b b r 7 * * 2 w b z z b z b b b z p z a b b b m z m z F ] % 2 p z p 9 w 9 y m b z z z b b b b z z z z m b z z ",
"b b b b F X.% 2 p m b b r 2 $ $ 6 a x b b b b p b b z z b b b b b p z z F X.% , t a w 9 a t 9 p b b b s b b b x m m b p b b m z ",
"b b b b F X.% 2 p z b a 0 w 6 * 6 t b x b b b b p b z z s b x b b b z m F ] % # 2 6 9 y z z k z p b b b a b x b z z b b p b m z ",
"p z z z F X.% 2 a b b b z z w 8 w 0 g x x x x x z z z z b b b x b x x x F X.+ X $ 2 y m b x x x z z z m b b b x x x x x z z m z ",
"a a p p B / % , w p y p s w 9 w p t p p p p p d a a p p t g p p p p p p Z ( +   + 2 y p p p p p p p p p t g p p p p p p p p p p ",
"2 2 2 2 2 2 o $ , 2 2 2 , = , < 2 2 2 2 2 2 2 2 2 2 2 2 2 2 2 2 2 2 2 2 2 , o   X $ , 2 2 2 2 2 2 2 2 2 2 2 2 2 2 2 2 2 2 2 2 2 ",
"o o o o . o     o o o o o X o X . . . O . . o o o o o o . O . o . . o . o .       X . o o . . o . o o o . O . o . . o o . o o o "
};
