/* XPM */
static char *_f82bd367d494008f7853d98a830a18eX4n6CertLvM5CmcW[] = {
/* columns rows colors chars-per-pixel */
"64 64 177 2 ",
"   c #650E02",
".  c #6B0D00",
"X  c #710F00",
"o  c #790F00",
"O  c #661003",
"+  c #6C1104",
"@  c #6F1408",
"#  c #731303",
"$  c #7C1401",
"%  c #7E1804",
"&  c #731709",
"*  c #761A0C",
"=  c #7C1B0C",
"-  c #7E1E11",
";  c #831602",
":  c #8B1701",
">  c #841803",
",  c #8A1A03",
"<  c #871F0D",
"1  c #8B1E0A",
"2  c #941C02",
"3  c #9B1D01",
"4  c #901F09",
"5  c #821F10",
"6  c #A21F01",
"7  c #82200E",
"8  c #8D200C",
"9  c #962006",
"0  c #9E2103",
"q  c #92220C",
"w  c #9E270E",
"e  c #852212",
"r  c #8C2515",
"t  c #942612",
"y  c #982714",
"u  c #962916",
"i  c #982A17",
"p  c #972B18",
"a  c #9B2D1A",
"s  c #9E301B",
"d  c #A42202",
"f  c #AB2402",
"g  c #B32502",
"h  c #BA2702",
"j  c #B32905",
"k  c #BC2902",
"l  c #B42D0B",
"z  c #BA2F0E",
"x  c #A42D15",
"c  c #AF2F13",
"v  c #A22F1C",
"b  c #B02F13",
"n  c #A5311D",
"m  c #A8351F",
"M  c #BC3414",
"N  c #B7371E",
"B  c #BE371A",
"V  c #B7381E",
"C  c #A63521",
"Z  c #AB3621",
"A  c #B33A23",
"S  c #B83D26",
"D  c #B53C28",
"F  c #BA3D28",
"G  c #C32B02",
"H  c #CC2D01",
"J  c #C12E08",
"K  c #D32E01",
"L  c #DA2F00",
"P  c #CE3002",
"I  c #C53009",
"U  c #D53101",
"Y  c #DB3302",
"T  c #DF3807",
"R  c #D43509",
"E  c #DA3708",
"W  c #D5390E",
"Q  c #DE3C0E",
"!  c #DC390C",
"~  c #C33716",
"^  c #C03719",
"/  c #C03B1E",
"(  c #C23A1D",
")  c #DF3D10",
"_  c #DF3E12",
"`  c #DE3D12",
"'  c #D33E19",
"]  c #E23602",
"[  c #E03703",
"{  c #E43702",
"}  c #E63702",
"|  c #E23706",
" . c #E33602",
".. c #E83702",
"X. c #E73801",
"o. c #E73802",
"O. c #E43906",
"+. c #E53905",
"@. c #EA3802",
"#. c #E13909",
"$. c #E43908",
"%. c #E23A0A",
"&. c #E13E12",
"*. c #C33E21",
"=. c #C33D21",
"-. c #DF431C",
";. c #E44317",
":. c #E24114",
">. c #EE4617",
",. c #E64318",
"<. c #E54418",
"1. c #E5441A",
"2. c #E9461A",
"3. c #E9491F",
"4. c #EA491F",
"5. c #EC4A1F",
"6. c #EC491D",
"7. c #F24719",
"8. c #F34A1C",
"9. c #FA4D1D",
"0. c #C54126",
"q. c #CA4224",
"w. c #C14329",
"e. c #C64328",
"r. c #C5432A",
"t. c #C9462C",
"y. c #C9472D",
"u. c #CA472C",
"i. c #CC452C",
"p. c #CD492D",
"a. c #CF492E",
"s. c #CE482F",
"d. c #D14A2F",
"f. c #D4492F",
"g. c #DE4A29",
"h. c #CC4730",
"j. c #CD4931",
"k. c #D54C32",
"l. c #D84F33",
"z. c #DD5134",
"x. c #E64923",
"c. c #EC4C22",
"v. c #E14B2B",
"b. c #EA4F2B",
"n. c #F04F26",
"m. c #F14E23",
"M. c #EF5028",
"N. c #ED522D",
"B. c #F05027",
"V. c #F35027",
"C. c #F4532C",
"Z. c #F3542D",
"A. c #F5562F",
"S. c #F3542B",
"D. c #FD572F",
"F. c #FE592F",
"G. c #E75435",
"H. c #EE5531",
"J. c #F45630",
"K. c #F75730",
"L. c #F55A33",
"P. c #F85B37",
"I. c #FE5C33",
"U. c #F45B39",
"Y. c #FC5E3A",
"T. c #FC603C",
"R. c #FD613F",
"E. c #FC613F",
"W. c #FE623F",
"Q. c #FD623C",
"!. c #FC6140",
"~. c #FD6241",
"^. c #FE6342",
"/. c #FF6541",
"(. c #FF6543",
"). c #FF6743",
"_. c #FF6440",
/* pixels */
"~.E.(.;.K Y U Y , z.W.(.6.K U U Y 2 p.(.~.B.U U U [ 0 S (.E.J.U U U [ f n ).E.P.U U U Y k i (.E.E.E U U Y G 8 E.E.E.) U E U U % ",
"! Y c.<.K K K Y > I Y 6.c.K U U ] 2 j ! <.B.U U U Y 0 d $.) Z.K U U Y f 9 O.! A.Y K U Y h , T E A.E U U U H > ! E C.%.K U K U % ",
"U K E E K U U Y , h U E E U U U Y 2 f Y U E U U U Y d 0 Y U E U U U Y f 2 Y U ! U U K Y k > Y P E U U U U P ; K K E U U U U U % ",
"Y Y G H G g g h % G X.G G G g g h ; g } H G G g g k , d } U k H g g h 0 2 } U k H g g h d , ] Y k U g g g f ; Y Y G H h g g g # ",
"% % # $ o . . .   # ; # # $ . . .   + % $ # $ . . .   . ; $ # % . . .   + ; $ # % . . . . . % ; # $ # . . .   % ; # $ # . . .   ",
"f f f f # w.i.i.l f d f f $ A p.i.M d f f f $ m d.i.M f f d f ; i k.i.B f d d f : r f.t.=.f d d f 2 7 d.i.*.f f d f 3 = p.p.w.j ",
"Y Y Y Y , 1.7.P.>.Y Y Y ] , ' 9.P.c.Y Y Y } 2 ~ 9.C.S.Y Y Y } d b V.n.I.Y Y Y X.g x 9.m.P.Y ] Y } G 8 9.m.Y.#.Y Y ] U 1 8.7.E.:.",
"U K Y K ; G H ) ! K Y K Y : g K ! ! K Y K Y 2 f K R &.K Y U Y 0 6 L U ;.K U U [ f 2 L H ;.U K U Y h > K H &.U U U Y G ; H H ) ! ",
"G G G G ; U } H K H G G H ; G } K H H G G H , h X.U H H G G H 2 6 X.Y H U k G H 6 3 X.Y H K G G H f , } Y H K G G G g ; ] ] H K ",
"; $ $ ; . 0 d , 3 ; $ $ ; . 2 d 2 2 2 o $ ; + , f 2 2 2 o $ ; + : f 3 , 2 $ $ ; X % f 3 , 3 $ $ $ $ # d d , 6 $ $ ; $ # d d , d ",
"i i i 1 , ; ; : . r a i 4 , > > : # e a i q : ; ; > # < a i t : : ; , # * n p u , : ; > $ & a i u : : ; > ; + a i i , , ; > > + ",
"P.D.(.2.L Y Y | , v.I.Q.5.L Y Y X.2 q.I.Y.C.Y Y Y X.6 N I.Y.L.L Y Y } g x I.P.T.Y Y Y } G y I.I.(.Y Y Y ] H 1 I.D.E.&.Y Y Y Y % ",
"K K <.&.K K K Y : h K &.2.H U K Y 2 f L W c.K K K Y 6 3 L R c.K U U Y f 2 L U c.U U K Y k : K K c.E K K L H $ K H c.! K K U U # ",
"Y Y K K R K K L > k  .K U U K K L 2 f | K U L K K Y 3 d | U K U H K L f 2 | U K U H K K j , | U U U K K L G ; L Y K U K K K U % ",
"J H g j 6 3 3 6 # j H j j f 2 3 6 # d K h g j 2 3 3 % 3 K k f h 3 3 6 > , K G f h 3 3 6 : ; H H f h 3 3 3 2 % G H 6 h d 3 3 3 + ",
"# X # X . # # & X X # . # . # # & @ X # + X . # # # # + # + # . + # # # + # # . + + # & # X # + # + + # & & . # X # . . # & # & ",
"H H H H > G.U.U.` H H H K > l.P.U.1.G H H U : e.Y.U.x.H H H U 2 A Y.U.b.H H H U 6 n Y.U.H.H H H K g t P.U.U.H H H H k < U.U.U.R ",
"U Y U U > R E Z.2.L Y K Y > I Y c.c.L U U | 2 j $.2.M.K Y U | 0 d %.&.A.U Y U | f 3 %.! K.Y U Y Y k , %.! K.Y U Y Y H > T E Z.:.",
"U K Y L ; H K Y R K U K Y , h L R Y L U U Y 2 f L U E K U L Y 0 3 Y U E U U K Y j 2 Y K R U K U Y h > Y K E K K U Y H ; K K E U ",
"j j g g % H ] G H k f g h % J } G G k j g h ; j } H G G f g h : d @.K k H f g h 2 2 ..U k H f g j 6 , ] Y k K g j g 6 > Y | k P ",
"+ . . .   $ % # $ X . . .   $ ; # # X . . . O # % # $ $ . . +   # ; & $ $ . . . . + > % # $ . . . . + ; $ # % . . . +   % % # > ",
"p.h.h.z f f d g $ D k.h.M f f f j $ C k.h.B f f f j ; a k.h.=.f f f j , r f.h.*.f f f f 3 5 k.h.t.j f f f d = h.i.t.l g f f f + ",
"5.>.P.2.L Y Y  .: ' 8.K.c.L Y Y @.3 B 9.C.S.Y Y Y } 6 c 9.n.L.L Y Y  .g x 9.m.P.] Y Y ] G 1 m.6.P.#.Y Y ] H , 8.8.P.&.L Y Y Y % ",
"K H ) ! K Y L Y : g K W ) U Y K  .2 f K U &.K Y K ] d 3 K K ;.K L K Y g : K K ;.K U U Y G : K K ;.U U U Y H % H H &.E K Y U U % ",
"Y | H K H G G H > G ..K H H G G H , j ..U H U G G K 2 d @.Y H U G G H 6 3 @.Y H U G J H f : | Y H U G G G h > Y | H U J G G G $ ",
"d d , 2 , $ $ $ . 2 d 2 2 2 $ $ ; . , f 3 , 2 $ $ o . > d 3 , 3 ; $ ; # # f 3 , 3 ; $ ; o X d d , 3 : $ $ $ + d d : 3 ; $ ; $   ",
"> ; > > . p i i 4 > > ; ; + r a p 4 ; ; ; : . e a i t ; ; ; > # = a i q > > ; , # = a i t , ; > > $ & a i y > ; ; ; $ & i a u , ",
"Y Y ] Y > J.I.~.2.L Y Y } , v.I.~.c.L Y Y X.2 q.I.Y.C.L ] Y } 0 N I.I.P.Y Y Y | g x I.P.P.Y Y Y ] k q I.F.E.$.Y Y ] K 1 I.F.E.:.",
"U U U U ; G K <.&.K Y U Y > h K ;.1.H U U Y 2 f K ! x.K U K Y 0 3 Y U c.K U U Y f 2 Y U c.U U U Y h > Y K c.E K U Y G ; K H 6.! ",
"P U U H ; P Y U K L P K U > G Y U K U K P Y 2 g } U K U U H Y 3 d | U K U H P Y f 2 ] U H U U H U h : Y U U U U P U G ; Y Y U U ",
"3 3 3 3 # k H f j 6 2 3 3 # g H j g f 2 2 6 $ d K j f g 2 3 3 % 3 H k f g 3 3 3 ; , H G f h 3 3 3 : ; H G f k 3 2 3 2 $ G H d k ",
"& & # # + # # # + # & # # # X # + . # & # # + + # X . # # # # # + # # + # & # # # . # # + + & # # # + # # + + & # # # + # # + @ ",
"U.L.!.` H H H L > k.Y.U.-.H P H Y , e.Y.U.c.H H H Y 3 A Y.U.N.H H H K f a Y.U.J.H P H K g t Y.U.L.R H H H G 1 L.U.U.W K H H H $ ",
"T Y b.1.K U U Y , G ] c.6.K Y U ] 2 j | 2.n.K L U ] 3 d | &.Z.K U Y ] f 2 ..! K.Y K Y Y k , | ! K.E L K Y H > ! Y C.&.K L Y Y # ",
"K K U Y K Y K Y , h U U E K U U Y 2 f L U E K K K Y d 3 Y K E K U K Y g 2 L K E K Y K Y k > U K E U U U K H ; K K E U U U U U % ",
"Y Y G H h g g h % G ] H G G g g h ; j | H G G g j h , d @.K G H g g k 2 2 | Y k H g g h d : ] Y k H g g j f ; Y Y G P j g j g # ",
"% % # # # . . .   $ % # # $ + . .   o % # # % X . . . + % $ # $ X . .   + % % # $ + . . .   % $ # $ # . . .   % % # $ # . . .   ",
"f f f f # r.k.f.z 6 f f f $ S f.s.M d f f g $ m k.i.^ f f f f ; a k.d.( f f f g : t l.i.0.f f f g 2 < f.i.q.j f f f 3 = p.s.i.l ",
"Y Y Y Y > ;.7.P.2.L Y Y ] : -.7.L.c.L Y Y X.3 ~ 9.C.S.L Y Y } 0 b 9.n.L.L Y Y ] g w 9.m.P.Y Y Y ] G q 9.6.Y.#.Y Y ] H 1 8.>.P.:.",
"Y U U Y ; G K ) T K Y U Y > g K ! ) K Y U Y 2 6 K R &.U Y U Y d 3 K P :.U Y U Y f 2 U H :.U U U Y k > K H &.U U U Y H ; H H &.! ",
"J G G G ; U ] H K H G G G > G X.H H H G G H : j X.U H H G G H 2 f @.Y H U k G H 6 2 @.Y H U G G H f , X.Y H U G G G j > ] ] H U ",
"; $ $ $ . 3 d , 3 ; $ o % . 9 d , 3 : $ $ ; . : d 2 2 2 o $ ; + ; d 2 , 2 $ $ ; X $ d 3 : 3 $ $ $ # # d 3 , 3 $ $ $ $ + d 0 : 0 ",
"a i a 8 , > > : + r a a 1 : > > , # e a a 8 : , ; , # - a a t : > ; , $ & v a t , , > : % @ a a i , : > > ; + a a i , : > > > O ",
"I.D.W.2.Y ] Y [ , g.I.E.m.Y Y Y ..2 q.I.Q.S.Y E Y X.6 N I.Y.L.Y Y Y } g x T.P.T.] Y Y [ G q I.I.W.T Y Y ] P 1 I.D.~.:.Y [ Y Y % ",
"K H 2.&.K U U Y : g K ) <.K U U Y 2 f L ! 6.K K U Y d 3 L R c.K U U Y f 2 L K c.U U U Y h > U K c.E U K U P ; U H x.! K U U U $ ",
"Y Y U K K H H U > k ] U K U K H Y 2 f ] U K U H H Y 3 d ] U U U H P U f 2 ] U K U P U U j : Y Y P U P H U G ; U Y U U P U P H % ",
"G H f g d 3 3 3 # g H g f f 3 2 3 # d H h f g 2 3 3 % 3 H k f g 3 3 3 : , H G f h 0 2 3 , ; P G f h 3 3 3 2 $ G H f h d 3 2 2 # ",
"# + + # + # & # # + # # + + & # & # # # + + + # # # # + # # # . + # & # + # + # + + # # # + + # + + + # # # + + # . + + # & # # ",
"H H H H ; G.U.T.` G H H U ; k.P.U.1.H H H U , e.Y.U.x.H H H U 2 A Q.U.N.H H H U 6 n Y.U.H.H H H U g t P.L.U.H H H H k 8 U.U.U.W ",
"Y U U Y ; R Y V.2.K Y U Y : I $.c.c.K L U Y 2 j | 2.n.K Y K ] 0 d O.) Z.U Y U ] g 9 O.Q Z.Y Y U Y k , %.! A.! L Y Y H > T E S.Q ",
"U K U U ; H K E E U U U Y , h U U E U U U Y 2 f Y U Y U Y K Y 0 3 Y U E U U U Y f 2 Y H E U K U Y k , Y K E U U U U H ; U K E E ",
"g g g g % H ] G H h f g g % G X.G G G g j h ; g | H G G f g k : d X.K k H f g h 2 2 X.U k H g g h 3 , [ Y k H g g g d ; Y Y k P ",
". . . +   # % # % .   . + O # ; # $ # . . +   # ; # # # . . #   # % $ # $   . . . + % $ # % . . . + + % $ # $ . . . + O $ $ # % ",
"j.k.j.z f f f g $ S k.k.M f f f g % m k.k.^ g f f g > a l.j.( f f f j 2 r k.j.e.f j f f 3 5 k.h.e.j f f f d = j.j.p.l f f f f + ",
"8.>.P.6.Y Y Y X.: ' 7.A.c.Y Y Y } 2 ~ 9.B.Z.Y Y Y } d c 9.n.L.Y Y Y ] g w 9.8.T.Y Y Y [ G 1 8.8.T.%.Y Y [ P , 8.7.T.:.Y Y Y Y % ",
"H H ! T U U U Y : g K ! Q U U U ] 2 d K U &.K U U ] 6 3 L K ;.K U Y Y f 2 K H :.U Y U Y G ; K H :.U U U Y P % H H Q E U Y U U % ",
"Y ] H K H G G H ; G X.K K H G G H , g X.U H K k G H 2 d ..U H U G G H 6 2 X.Y H U G G H f : |  .H K G G G h ; Y ] H K H G G G $ ",
"0 d , 2 : o $ $ O 2 d 2 2 , $ $ $ . , f 2 , 2 o $ ; . ; d 3 : 2 $ $ $ X $ d 3 : 2 ; $ o o # d 6 : 3 ; $ $ $ + d d : 2 > $ $ $   ",
"1 > : > + p a a q ; ; ; : + t a a q ; > : , # r a a q : > : , # 5 v a y : > > , # = v a u , > > : $ & v a y , ; ; , ; # a a i 4 ",
"Y Y Y Y > H.F.~.,.Y Y Y  .: v.I.E.c.L | Y | 2 q.P.Y.Z.Y Y Y @.3 N I.I.L.Y Y Y | g x I.P.P.Y Y Y  .k q I.I.E.| Y Y ] H < I.D.E.&.",
"U U U U ; J K <.&.K Y U Y , h K ` 1.K U U Y 2 f L ! 2.L R L Y 0 3 K R c.K U U Y f , Y U c.E U U Y k : K H c.E U U Y H ; K H 2.! ",
"U P P P ; P Y K U U H H K > G Y U K U I K U 2 j ] K K U P P U 3 d | U U U H H Y f 2 ] U H U U P K j , ] E K U H P H G > Y E U U ",
"3 2 3 2 # h J f j 6 2 3 3 # g I f g f 2 3 3 & 6 H l f f 2 3 6 % 3 P h d g 2 3 3 ; 1 H k d h 3 3 3 , ; H G d j 3 3 3 2 $ J J d h ",
"+ + + + + . @ + + + O + + + + + + + @ + + + O . @ O + + + O + O + + + + @ + + + O @ + + + + O O + + O + + + + O + + + + + O + @ "
};
